<svg width="276" height="232" viewBox="0 0 276 232" fill="none" xmlns="http://www.w3.org/2000/svg">
<g clip-path="url(#clip0_105_202)">
<path d="M3.98798 228.015C1.32932 225.62 0 221.626 0 216.041V168.145L10.0636 158.056V214.54C10.0636 217.533 10.7595 219.597 12.1602 220.723C13.552 221.858 15.4791 222.421 17.9414 222.421H43.3503V231.598H15.5504C10.5008 231.598 6.64663 230.401 3.9969 228.006" fill="white"/>
<path d="M67.6529 229.007C64.5927 227.014 63.0671 223.055 63.0671 217.131V173.417C63.0671 168.029 64.5303 164.124 67.4477 161.693C70.374 159.263 73.8891 158.047 78.0109 158.047C85.9155 158.047 94.855 158.315 104.812 158.843L109.299 159.039V167.323H80.9996C75.7537 167.323 73.1308 169.95 73.1308 175.204V190.475L104.82 191.074V198.857L73.1308 199.554V214.62C73.1308 217.747 73.8623 219.856 75.3255 220.955C76.7886 222.054 78.7425 222.6 81.2048 222.6H109.299V230.883C97.8705 231.616 87.7087 231.982 78.8049 231.982C74.4244 231.982 70.7041 230.981 67.6439 228.989" fill="white"/>
<path d="M194.296 231.607L187.622 174.722L171.483 231.607H162.213L145.878 175.017L139.499 231.607H129.828L138.205 158.056H148.162L166.897 219.427L185.329 158.056H195.393L203.967 231.607H194.296Z" fill="white"/>
<path d="M226.485 158.056H256.274C261.922 158.056 266.623 159.718 270.37 163.042C274.126 166.367 276 172.72 276 182.103C276 191.485 274.073 198.017 270.219 201.511C266.365 205.005 261.681 206.747 256.167 206.747C254.106 206.747 251.002 206.613 246.853 206.345C242.704 206.077 239.261 205.809 236.54 205.55V221.518C236.54 227.085 232.034 231.598 226.476 231.598V158.047L226.485 158.056ZM254.775 197.776C262.216 197.776 265.936 192.584 265.936 182.21C265.936 171.835 262.412 167.037 255.373 167.037H236.54V197.776H254.775Z" fill="white"/>
<path d="M203.556 28.8984L116.32 116.273H132.736L203.556 45.3403C208.088 40.8009 208.088 33.4378 203.556 28.8984Z" fill="white"/>
<path d="M91.9554 75.5163V91.9582L179.236 4.5393C174.704 -8.01086e-05 167.352 -8.01086e-05 162.82 4.5393L91.9554 75.5163Z" fill="white"/>
<path d="M104.16 95.872C101.894 98.1417 101.894 101.823 104.16 104.093C106.426 106.363 110.102 106.363 112.368 104.093L192.27 24.064L195.42 12.6887L184.062 15.8431L104.16 95.872Z" fill="white"/>
<path d="M172.455 139.354H91.9554C79.2688 139.354 68.9554 129.024 68.9554 116.317V35.6896C68.9554 22.9918 79.2777 12.6531 91.9554 12.6531H132.219V24.1713H91.9554C85.6121 24.1713 80.4554 29.3362 80.4554 35.6896V116.317C80.4554 122.671 85.6121 127.835 91.9554 127.835H172.455C178.799 127.835 183.955 122.671 183.955 116.317V75.981H195.455V116.317C195.455 129.024 185.133 139.354 172.455 139.354Z" fill="white"/>
</g>
<defs>
<clipPath id="clip0_105_202">
<rect width="276" height="232" fill="white"/>
</clipPath>
</defs>
</svg>
