<svg width="134" height="40" viewBox="0 0 134 40" fill="none" xmlns="http://www.w3.org/2000/svg">
<g clip-path="url(#clip0_105_140)">
<path d="M37.8185 8.33264L13.3078 32.9856H17.9208L37.8185 12.9724C39.0923 11.6913 39.0923 9.61376 37.8185 8.33264Z" fill="white"/>
<path d="M6.46454 21.4876V26.1274L30.9851 1.45959C29.7114 0.178468 27.6459 0.178468 26.3721 1.45959L6.46454 21.4876Z" fill="white"/>
<path d="M9.89232 27.2304C9.25546 27.871 9.25546 28.9097 9.89232 29.5503C10.5292 30.1908 11.5619 30.1908 12.1988 29.5503L34.6489 6.9699L35.5342 3.76215L32.3449 4.6525L9.89232 27.2304Z" fill="white"/>
<path d="M29.0819 39.5H6.4621C2.89909 39.5 0 36.5841 0 33.0004V10.2494C0 6.6657 2.89909 3.74979 6.4621 3.74979H17.7757V6.99958H6.4621C4.67937 6.99958 3.23105 8.45877 3.23105 10.2494V33.0004C3.23105 34.7935 4.67937 36.2502 6.4621 36.2502H29.0819C30.8646 36.2502 32.3129 34.7935 32.3129 33.0004V21.6187H35.544V33.0004C35.544 36.5841 32.6449 39.5 29.0819 39.5Z" fill="white"/>
<path d="M46.5207 31.838C45.665 31.0639 45.2396 29.7754 45.2396 27.9699V12.5025L48.4756 9.2428V27.4852C48.4756 28.4522 48.6994 29.1175 49.1493 29.4835C49.5969 29.8496 50.2165 30.0326 51.0083 30.0326H59.1794V32.9979H50.2387C48.6158 32.9979 47.3764 32.6097 46.5207 31.838Z" fill="white"/>
<path d="M66.9963 32.1595C66.0128 31.514 65.5234 30.2379 65.5234 28.3236V14.2065C65.5234 12.4654 65.9931 11.2041 66.9324 10.42C67.8717 9.63604 69.0053 9.2428 70.3282 9.2428C72.8708 9.2428 75.7428 9.32936 78.9468 9.50001L80.3877 9.56432V12.2403H71.2872C69.6004 12.2403 68.7545 13.0886 68.7545 14.7877V19.7193L78.9443 19.9122V22.4275L68.7545 22.6525V27.5198C68.7545 28.5313 68.9905 29.2115 69.4602 29.5676C69.9299 29.9213 70.5594 30.0994 71.3511 30.0994H80.3877V32.7754C76.7141 33.0128 73.4437 33.129 70.5815 33.129C69.1725 33.129 67.975 32.8075 66.9914 32.162" fill="white"/>
<path d="M107.724 32.9979L105.577 14.627L100.386 32.9979H97.406L92.1513 14.7234L90.1005 32.9979H86.9924L89.6825 9.2428H92.8865L98.9109 29.0656L104.839 9.2428H108.078L110.832 32.9979H107.724Z" fill="white"/>
<path d="M118.073 9.2428H127.653C129.468 9.2428 130.98 9.77948 132.188 10.8553C133.395 11.9287 133.998 13.9815 133.998 17.0111C133.998 20.0408 133.378 22.1529 132.139 23.2807C130.899 24.4085 129.394 24.9724 127.622 24.9724C126.96 24.9724 125.959 24.9304 124.624 24.8438C123.289 24.7572 122.182 24.6731 121.307 24.5866V29.7432C121.307 31.5412 119.859 32.9979 118.071 32.9979V9.2428H118.073ZM127.174 22.0713C129.567 22.0713 130.764 20.3945 130.764 17.0433C130.764 13.6921 129.63 12.1439 127.368 12.1439H121.312V22.0713H127.176H127.174Z" fill="white"/>
</g>
<defs>
<clipPath id="clip0_105_140">
<rect width="134" height="39" fill="white" transform="translate(0 0.5)"/>
</clipPath>
</defs>
</svg>
