<svg width="664" height="475" viewBox="0 0 664 475" fill="none" xmlns="http://www.w3.org/2000/svg">
<g clip-path="url(#clip0_101_372)">
<path d="M30.6889 96.7126C36.5323 96.7126 41.2693 91.9666 41.2693 86.1121C41.2693 80.2576 36.5323 75.5116 30.6889 75.5116C24.8455 75.5116 20.1084 80.2576 20.1084 86.1121C20.1084 91.9666 24.8455 96.7126 30.6889 96.7126Z" fill="#E6E6E6"/>
<path d="M62.4302 96.7126C68.2736 96.7126 73.0106 91.9666 73.0106 86.1121C73.0106 80.2576 68.2736 75.5116 62.4302 75.5116C56.5868 75.5116 51.8497 80.2576 51.8497 86.1121C51.8497 91.9666 56.5868 96.7126 62.4302 96.7126Z" fill="#E6E6E6"/>
<path d="M94.1714 96.7126C100.015 96.7126 104.752 91.9666 104.752 86.1121C104.752 80.2576 100.015 75.5116 94.1714 75.5116C88.328 75.5116 83.591 80.2576 83.591 86.1121C83.591 91.9666 88.328 96.7126 94.1714 96.7126Z" fill="#E6E6E6"/>
<path d="M125.913 96.7126C131.756 96.7126 136.493 91.9666 136.493 86.1121C136.493 80.2576 131.756 75.5116 125.913 75.5116C120.069 75.5116 115.332 80.2576 115.332 86.1121C115.332 91.9666 120.069 96.7126 125.913 96.7126Z" fill="#E6E6E6"/>
<path d="M157.654 96.7126C163.497 96.7126 168.234 91.9666 168.234 86.1121C168.234 80.2576 163.497 75.5116 157.654 75.5116C151.811 75.5116 147.074 80.2576 147.074 86.1121C147.074 91.9666 151.811 96.7126 157.654 96.7126Z" fill="#E6E6E6"/>
<path d="M189.395 96.7126C195.239 96.7126 199.976 91.9666 199.976 86.1121C199.976 80.2576 195.239 75.5116 189.395 75.5116C183.552 75.5116 178.815 80.2576 178.815 86.1121C178.815 91.9666 183.552 96.7126 189.395 96.7126Z" fill="#E6E6E6"/>
<path d="M221.137 96.7126C226.98 96.7126 231.717 91.9666 231.717 86.1121C231.717 80.2576 226.98 75.5116 221.137 75.5116C215.293 75.5116 210.556 80.2576 210.556 86.1121C210.556 91.9666 215.293 96.7126 221.137 96.7126Z" fill="#E6E6E6"/>
<path d="M245.586 99.021H6.23955C5.09802 99.0197 4.00363 98.5648 3.19645 97.7561C2.38927 96.9473 1.93521 95.8509 1.93387 94.7072V77.5171C1.93521 76.3734 2.38927 75.2769 3.19645 74.4682C4.00363 73.6595 5.09802 73.2046 6.23955 73.2032H245.586C246.727 73.2046 247.822 73.6595 248.629 74.4682C249.436 75.2769 249.89 76.3734 249.892 77.5171V94.7072C249.89 95.8509 249.436 96.9473 248.629 97.7561C247.822 98.5648 246.727 99.0197 245.586 99.021ZM6.23955 74.9288C5.55461 74.9296 4.89795 75.2025 4.41363 75.6877C3.92931 76.173 3.65688 76.8309 3.65614 77.5171V94.7072C3.65689 95.3934 3.92931 96.0513 4.41363 96.5366C4.89795 97.0218 5.55461 97.2948 6.23955 97.2955H245.586C246.271 97.2948 246.928 97.0218 247.412 96.5366C247.896 96.0513 248.169 95.3934 248.169 94.7072V77.5171C248.169 76.8309 247.896 76.173 247.412 75.6877C246.928 75.2025 246.271 74.9295 245.586 74.9288L6.23955 74.9288Z" fill="#E6E6E6"/>
<path d="M57.4612 2.47856C58.1171 2.47931 58.7459 2.74069 59.2096 3.20534C59.6734 3.66999 59.9343 4.29997 59.935 4.95709V58.6671C59.9343 59.3242 59.6734 59.9542 59.2096 60.4188C58.7459 60.8835 58.1171 61.1449 57.4612 61.1456H4.9478C4.29193 61.1449 3.66313 60.8835 3.19935 60.4188C2.73558 59.9542 2.4747 59.3242 2.47395 58.6671V4.95714C2.4747 4.30002 2.73558 3.67003 3.19935 3.20538C3.66313 2.74073 4.29193 2.47935 4.9478 2.4786L57.4612 2.47856ZM57.4612 3.56003e-05H4.9478C3.63557 3.56003e-05 2.37709 0.522302 1.4492 1.45195C0.52132 2.38159 3.05176e-05 3.64246 3.05176e-05 4.95717V58.6671C3.05176e-05 59.9818 0.52132 61.2427 1.4492 62.1723C2.37709 63.102 3.63557 63.6242 4.9478 63.6242H57.4612C58.7734 63.6242 60.0319 63.102 60.9598 62.1723C61.8877 61.2427 62.4089 59.9818 62.4089 58.6671V4.95714C62.4089 3.64242 61.8877 2.38155 60.9598 1.45191C60.0319 0.522267 58.7734 3.76629e-05 57.4612 3.56003e-05Z" fill="#E6E6E6"/>
<path d="M49.2702 16.5966H14.2337C14.0706 16.5976 13.9089 16.5663 13.758 16.5045C13.607 16.4426 13.4698 16.3515 13.3541 16.2363C13.2385 16.1212 13.1467 15.9842 13.084 15.8333C13.0214 15.6825 12.9891 15.5207 12.9891 15.3573C12.9891 15.1939 13.0214 15.0322 13.084 14.8813C13.1467 14.7305 13.2385 14.5935 13.3541 14.4783C13.4698 14.3632 13.607 14.272 13.758 14.2102C13.9089 14.1484 14.0706 14.1171 14.2337 14.1181H49.2702C49.4333 14.1171 49.5949 14.1484 49.7459 14.2102C49.8968 14.272 50.0341 14.3632 50.1498 14.4783C50.2654 14.5935 50.3572 14.7305 50.4199 14.8813C50.4825 15.0322 50.5147 15.1939 50.5147 15.3573C50.5147 15.5207 50.4825 15.6825 50.4199 15.8333C50.3572 15.9842 50.2654 16.1212 50.1498 16.2363C50.0341 16.3515 49.8968 16.4426 49.7459 16.5045C49.5949 16.5663 49.4333 16.5976 49.2702 16.5966Z" fill="#008896"/>
<path d="M49.2702 25.3727H14.2337C14.0706 25.3737 13.9089 25.3423 13.758 25.2805C13.607 25.2187 13.4698 25.1276 13.3541 25.0124C13.2385 24.8972 13.1467 24.7602 13.084 24.6094C13.0214 24.4585 12.9891 24.2968 12.9891 24.1334C12.9891 23.97 13.0214 23.8082 13.084 23.6574C13.1467 23.5065 13.2385 23.3696 13.3541 23.2544C13.4698 23.1392 13.607 23.0481 13.758 22.9863C13.9089 22.9244 14.0706 22.8931 14.2337 22.8941H49.2702C49.4333 22.8931 49.5949 22.9244 49.7459 22.9863C49.8968 23.0481 50.0341 23.1392 50.1498 23.2544C50.2654 23.3696 50.3572 23.5065 50.4199 23.6574C50.4825 23.8082 50.5147 23.97 50.5147 24.1334C50.5147 24.2968 50.4825 24.4585 50.4199 24.6094C50.3572 24.7602 50.2654 24.8972 50.1498 25.0124C50.0341 25.1276 49.8968 25.2187 49.7459 25.2805C49.5949 25.3423 49.4333 25.3737 49.2702 25.3727Z" fill="#008896"/>
<path d="M49.2702 34.1481H14.2337C14.0706 34.1491 13.9089 34.1178 13.758 34.056C13.607 33.9941 13.4698 33.903 13.3541 33.7878C13.2385 33.6727 13.1467 33.5357 13.084 33.3848C13.0214 33.234 12.9891 33.0722 12.9891 32.9088C12.9891 32.7455 13.0214 32.5837 13.084 32.4328C13.1467 32.282 13.2385 32.145 13.3541 32.0298C13.4698 31.9147 13.607 31.8235 13.758 31.7617C13.9089 31.6999 14.0706 31.6686 14.2337 31.6696H49.2702C49.4333 31.6686 49.5949 31.6999 49.7459 31.7617C49.8968 31.8235 50.0341 31.9147 50.1498 32.0298C50.2654 32.145 50.3572 32.282 50.4199 32.4328C50.4825 32.5837 50.5147 32.7455 50.5147 32.9088C50.5147 33.0722 50.4825 33.234 50.4199 33.3848C50.3572 33.5357 50.2654 33.6727 50.1498 33.7878C50.0341 33.903 49.8968 33.9941 49.7459 34.056C49.5949 34.1178 49.4333 34.1491 49.2702 34.1481Z" fill="#008896"/>
<path d="M49.2702 42.9241H14.2337C14.0706 42.9251 13.9089 42.8938 13.758 42.832C13.607 42.7701 13.4698 42.679 13.3541 42.5638C13.2385 42.4487 13.1467 42.3117 13.084 42.1608C13.0214 42.01 12.9891 41.8482 12.9891 41.6848C12.9891 41.5215 13.0214 41.3597 13.084 41.2088C13.1467 41.058 13.2385 40.921 13.3541 40.8058C13.4698 40.6907 13.607 40.5995 13.758 40.5377C13.9089 40.4759 14.0706 40.4446 14.2337 40.4456H49.2702C49.4333 40.4446 49.5949 40.4759 49.7459 40.5377C49.8968 40.5995 50.0341 40.6907 50.1498 40.8058C50.2654 40.921 50.3572 41.058 50.4199 41.2088C50.4825 41.3597 50.5147 41.5215 50.5147 41.6848C50.5147 41.8482 50.4825 42.01 50.4199 42.1608C50.3572 42.3117 50.2654 42.4487 50.1498 42.5638C50.0341 42.679 49.8968 42.7701 49.7459 42.832C49.5949 42.8938 49.4333 42.9251 49.2702 42.9241Z" fill="#008896"/>
<path d="M49.2702 51.7002H14.2337C13.9056 51.7002 13.591 51.5696 13.359 51.3372C13.127 51.1048 12.9967 50.7896 12.9967 50.4609C12.9967 50.1322 13.127 49.817 13.359 49.5846C13.591 49.3522 13.9056 49.2216 14.2337 49.2216H49.2702C49.5983 49.2216 49.9129 49.3522 50.1449 49.5846C50.3768 49.817 50.5072 50.1322 50.5072 50.4609C50.5072 50.7896 50.3768 51.1048 50.1449 51.3372C49.9129 51.5696 49.5983 51.7002 49.2702 51.7002Z" fill="#008896"/>
<path d="M236.817 2.47856C237.473 2.47931 238.102 2.74069 238.566 3.20534C239.03 3.66999 239.291 4.29997 239.291 4.95709V58.6671C239.291 59.3242 239.03 59.9542 238.566 60.4188C238.102 60.8835 237.473 61.1449 236.817 61.1456H184.304C183.648 61.1449 183.019 60.8835 182.556 60.4188C182.092 59.9542 181.831 59.3242 181.83 58.6671V4.95714C181.831 4.30002 182.092 3.67003 182.556 3.20538C183.019 2.74073 183.648 2.47935 184.304 2.4786L236.817 2.47856ZM236.817 3.56003e-05H184.304C182.992 3.56003e-05 181.733 0.522302 180.805 1.45195C179.878 2.38159 179.356 3.64246 179.356 4.95717V58.6671C179.356 59.9818 179.878 61.2427 180.805 62.1723C181.733 63.102 182.992 63.6242 184.304 63.6242H236.817C238.13 63.6242 239.388 63.102 240.316 62.1723C241.244 61.2427 241.765 59.9818 241.765 58.6671V4.95714C241.765 3.64242 241.244 2.38155 240.316 1.45191C239.388 0.522266 238.13 3.56003e-05 236.817 3.56003e-05Z" fill="#E6E6E6"/>
<path d="M228.626 16.5966H193.59C193.427 16.5976 193.265 16.5663 193.114 16.5045C192.963 16.4426 192.826 16.3515 192.71 16.2363C192.595 16.1212 192.503 15.9842 192.44 15.8333C192.378 15.6825 192.345 15.5207 192.345 15.3573C192.345 15.1939 192.378 15.0322 192.44 14.8813C192.503 14.7305 192.595 14.5935 192.71 14.4783C192.826 14.3632 192.963 14.272 193.114 14.2102C193.265 14.1484 193.427 14.1171 193.59 14.1181H228.626C228.953 14.1201 229.266 14.2515 229.496 14.4837C229.727 14.7159 229.856 15.03 229.856 15.3573C229.856 15.6847 229.727 15.9988 229.496 16.2309C229.266 16.4631 228.953 16.5946 228.626 16.5966Z" fill="#008896"/>
<path d="M228.626 25.3727H193.59C193.427 25.3737 193.265 25.3423 193.114 25.2805C192.963 25.2187 192.826 25.1276 192.71 25.0124C192.595 24.8972 192.503 24.7602 192.44 24.6094C192.378 24.4585 192.345 24.2968 192.345 24.1334C192.345 23.97 192.378 23.8082 192.44 23.6574C192.503 23.5065 192.595 23.3696 192.71 23.2544C192.826 23.1392 192.963 23.0481 193.114 22.9863C193.265 22.9244 193.427 22.8931 193.59 22.8941H228.626C228.953 22.8961 229.266 23.0276 229.496 23.2598C229.727 23.492 229.856 23.806 229.856 24.1334C229.856 24.4607 229.727 24.7748 229.496 25.007C229.266 25.2392 228.953 25.3706 228.626 25.3727Z" fill="#008896"/>
<path d="M228.626 34.1481H193.59C193.427 34.1491 193.265 34.1178 193.114 34.056C192.963 33.9941 192.826 33.903 192.71 33.7878C192.595 33.6727 192.503 33.5357 192.44 33.3848C192.378 33.234 192.345 33.0722 192.345 32.9088C192.345 32.7455 192.378 32.5837 192.44 32.4328C192.503 32.282 192.595 32.145 192.71 32.0298C192.826 31.9147 192.963 31.8235 193.114 31.7617C193.265 31.6999 193.427 31.6686 193.59 31.6696H228.626C228.953 31.6716 229.266 31.803 229.496 32.0352C229.727 32.2674 229.856 32.5815 229.856 32.9088C229.856 33.2362 229.727 33.5503 229.496 33.7825C229.266 34.0146 228.953 34.1461 228.626 34.1481Z" fill="#008896"/>
<path d="M228.626 42.9241H193.59C193.427 42.9251 193.265 42.8938 193.114 42.832C192.963 42.7701 192.826 42.679 192.71 42.5638C192.595 42.4487 192.503 42.3117 192.44 42.1608C192.378 42.01 192.345 41.8482 192.345 41.6848C192.345 41.5215 192.378 41.3597 192.44 41.2088C192.503 41.058 192.595 40.921 192.71 40.8058C192.826 40.6907 192.963 40.5995 193.114 40.5377C193.265 40.4759 193.427 40.4446 193.59 40.4456H228.626C228.953 40.4476 229.266 40.579 229.496 40.8112C229.727 41.0434 229.856 41.3575 229.856 41.6848C229.856 42.0122 229.727 42.3263 229.496 42.5585C229.266 42.7906 228.953 42.9221 228.626 42.9241Z" fill="#008896"/>
<path d="M228.626 51.7002H193.59C193.262 51.7002 192.947 51.5696 192.715 51.3372C192.483 51.1048 192.353 50.7896 192.353 50.4609C192.353 50.1322 192.483 49.817 192.715 49.5846C192.947 49.3522 193.262 49.2216 193.59 49.2216H228.627C228.955 49.2216 229.269 49.3522 229.501 49.5846C229.733 49.817 229.863 50.1322 229.863 50.4609C229.863 50.7896 229.733 51.1048 229.501 51.3372C229.269 51.5696 228.955 51.7002 228.626 51.7002Z" fill="#008896"/>
<path d="M415.302 105.75C415.958 105.751 416.587 106.013 417.051 106.477C417.515 106.942 417.776 107.572 417.776 108.229V161.939C417.776 162.596 417.515 163.226 417.051 163.691C416.587 164.155 415.958 164.417 415.302 164.417H362.789C362.133 164.417 361.504 164.155 361.041 163.691C360.577 163.226 360.316 162.596 360.315 161.939V108.229C360.316 107.572 360.577 106.942 361.041 106.477C361.504 106.013 362.133 105.751 362.789 105.75L415.302 105.75ZM415.302 103.272H362.789C361.477 103.272 360.218 103.794 359.29 104.724C358.363 105.653 357.841 106.914 357.841 108.229V161.939C357.841 163.254 358.363 164.515 359.29 165.444C360.218 166.374 361.477 166.896 362.789 166.896H415.302C416.615 166.896 417.873 166.374 418.801 165.444C419.729 164.515 420.25 163.254 420.25 161.939V108.229C420.25 106.914 419.729 105.653 418.801 104.724C417.873 103.794 416.615 103.272 415.302 103.272Z" fill="#008896"/>
<path d="M407.112 119.868H372.075C371.912 119.869 371.75 119.838 371.599 119.776C371.448 119.714 371.311 119.623 371.195 119.508C371.08 119.393 370.988 119.256 370.925 119.105C370.863 118.954 370.83 118.793 370.83 118.629C370.83 118.466 370.863 118.304 370.925 118.153C370.988 118.002 371.08 117.865 371.195 117.75C371.311 117.635 371.448 117.544 371.599 117.482C371.75 117.42 371.912 117.389 372.075 117.39H407.112C407.438 117.392 407.751 117.523 407.981 117.756C408.212 117.988 408.341 118.302 408.341 118.629C408.341 118.957 408.212 119.271 407.981 119.503C407.751 119.735 407.438 119.866 407.112 119.868Z" fill="#008896"/>
<path d="M407.112 128.645H372.075C371.747 128.645 371.432 128.514 371.2 128.282C370.968 128.049 370.838 127.734 370.838 127.405C370.838 127.077 370.968 126.761 371.2 126.529C371.432 126.297 371.747 126.166 372.075 126.166H407.112C407.44 126.166 407.754 126.297 407.986 126.529C408.218 126.761 408.348 127.077 408.348 127.405C408.348 127.734 408.218 128.049 407.986 128.282C407.754 128.514 407.44 128.645 407.112 128.645Z" fill="#008896"/>
<path d="M407.112 137.42H372.075C371.912 137.421 371.751 137.389 371.6 137.327C371.449 137.265 371.312 137.174 371.196 137.059C371.081 136.944 370.989 136.807 370.927 136.656C370.864 136.506 370.832 136.344 370.832 136.181C370.832 136.017 370.864 135.856 370.927 135.705C370.989 135.554 371.081 135.417 371.196 135.302C371.312 135.187 371.449 135.096 371.6 135.034C371.751 134.972 371.912 134.941 372.075 134.941H407.112C407.438 134.943 407.751 135.075 407.981 135.307C408.212 135.539 408.341 135.853 408.341 136.181C408.341 136.508 408.212 136.822 407.981 137.054C407.751 137.286 407.438 137.418 407.112 137.42Z" fill="#008896"/>
<path d="M407.112 146.196H372.075C371.912 146.197 371.75 146.166 371.599 146.104C371.448 146.042 371.311 145.951 371.195 145.836C371.08 145.72 370.988 145.584 370.925 145.433C370.863 145.282 370.83 145.12 370.83 144.957C370.83 144.793 370.863 144.632 370.925 144.481C370.988 144.33 371.08 144.193 371.195 144.078C371.311 143.963 371.448 143.871 371.599 143.81C371.75 143.748 371.912 143.716 372.075 143.717H407.112C407.438 143.719 407.751 143.851 407.981 144.083C408.212 144.315 408.341 144.629 408.341 144.957C408.341 145.284 408.212 145.598 407.981 145.83C407.751 146.062 407.438 146.194 407.112 146.196Z" fill="#008896"/>
<path d="M407.112 154.972H372.075C371.912 154.973 371.75 154.942 371.599 154.88C371.448 154.818 371.311 154.727 371.195 154.612C371.08 154.497 370.988 154.36 370.925 154.209C370.863 154.058 370.83 153.896 370.83 153.733C370.83 153.569 370.863 153.408 370.925 153.257C370.988 153.106 371.08 152.969 371.195 152.854C371.311 152.739 371.448 152.647 371.599 152.586C371.75 152.524 371.912 152.492 372.075 152.493H407.112C407.438 152.496 407.751 152.627 407.981 152.859C408.212 153.091 408.341 153.405 408.341 153.733C408.341 154.06 408.212 154.374 407.981 154.606C407.751 154.839 407.438 154.97 407.112 154.972Z" fill="#008896"/>
<path d="M147.826 63.6243H93.9381C92.4808 63.6225 91.0836 63.0418 90.0532 62.0093C89.0227 60.9769 88.443 59.5771 88.4413 58.1171V19.4838C88.4429 18.0236 89.0225 16.6237 90.053 15.5912C91.0835 14.5586 92.4807 13.9778 93.9381 13.976H147.826C149.284 13.9776 150.681 14.5584 151.712 15.591C152.743 16.6235 153.322 18.0235 153.324 19.4838V58.1171C153.322 59.5772 152.742 60.9771 151.712 62.0095C150.681 63.042 149.284 63.6227 147.826 63.6243ZM93.9381 16.4546C93.1365 16.4556 92.3681 16.7751 91.8014 17.343C91.2347 17.9108 90.916 18.6808 90.9152 19.4838V58.1171C90.916 58.92 91.2348 59.6899 91.8015 60.2577C92.3682 60.8255 93.1366 61.1448 93.9381 61.1457H147.826C148.628 61.1448 149.396 60.8255 149.963 60.2577C150.53 59.69 150.849 58.9201 150.85 58.1171V19.4838C150.849 18.6807 150.53 17.9108 149.963 17.3429C149.397 16.775 148.628 16.4555 147.826 16.4546H93.9381Z" fill="#E6E6E6"/>
<path d="M138.401 31.2636H103.364C103.038 31.2616 102.725 31.1302 102.495 30.898C102.264 30.6658 102.135 30.3518 102.135 30.0244C102.135 29.697 102.264 29.383 102.495 29.1508C102.725 28.9186 103.038 28.7871 103.364 28.7851H138.401C138.564 28.7841 138.726 28.8154 138.877 28.8773C139.028 28.9391 139.165 29.0302 139.28 29.1454C139.396 29.2606 139.488 29.3975 139.551 29.5484C139.613 29.6992 139.645 29.861 139.645 30.0244C139.645 30.1878 139.613 30.3495 139.551 30.5004C139.488 30.6513 139.396 30.7882 139.28 30.9034C139.165 31.0186 139.028 31.1097 138.877 31.1715C138.726 31.2333 138.564 31.2646 138.401 31.2636Z" fill="#008896"/>
<path d="M138.401 40.0397H103.364C103.038 40.0377 102.725 39.9062 102.495 39.6741C102.264 39.4419 102.135 39.1278 102.135 38.8005C102.135 38.4731 102.264 38.159 102.495 37.9268C102.725 37.6946 103.038 37.5632 103.364 37.5612H138.401C138.564 37.5602 138.726 37.5915 138.877 37.6533C139.028 37.7152 139.165 37.8063 139.28 37.9215C139.396 38.0366 139.488 38.1736 139.551 38.3244C139.613 38.4753 139.645 38.6371 139.645 38.8005C139.645 38.9638 139.613 39.1256 139.551 39.2765C139.488 39.4273 139.396 39.5643 139.28 39.6794C139.165 39.7946 139.028 39.8857 138.877 39.9476C138.726 40.0094 138.564 40.0407 138.401 40.0397Z" fill="#008896"/>
<path d="M138.401 48.8152H103.364C103.038 48.8132 102.725 48.6817 102.495 48.4495C102.264 48.2173 102.135 47.9033 102.135 47.5759C102.135 47.2485 102.264 46.9345 102.495 46.7023C102.725 46.4701 103.038 46.3386 103.364 46.3366H138.401C138.564 46.3356 138.726 46.3669 138.877 46.4288C139.028 46.4906 139.165 46.5817 139.28 46.6969C139.396 46.8121 139.488 46.949 139.551 47.0999C139.613 47.2507 139.645 47.4125 139.645 47.5759C139.645 47.7393 139.613 47.901 139.551 48.0519C139.488 48.2028 139.396 48.3397 139.28 48.4549C139.165 48.5701 139.028 48.6612 138.877 48.723C138.726 48.7848 138.564 48.8162 138.401 48.8152Z" fill="#008896"/>
<path d="M326.637 85.0321L274.881 69.9944C273.482 69.5861 272.302 68.6384 271.599 67.3593C270.896 66.0802 270.729 64.574 271.133 63.1712L281.873 26.0667C282.28 24.6648 283.226 23.482 284.503 22.7779C285.78 22.0738 287.283 21.9058 288.683 22.3108L340.439 37.3485C341.839 37.7568 343.019 38.7045 343.722 39.9838C344.425 41.2631 344.592 42.7695 344.188 44.1724L333.448 81.2769C333.04 82.6788 332.094 83.8615 330.818 84.5655C329.541 85.2695 328.037 85.4373 326.637 85.0321ZM287.994 24.6913C287.224 24.4686 286.397 24.561 285.695 24.9483C284.993 25.3355 284.473 25.9861 284.249 26.7571L273.509 63.8616C273.286 64.633 273.379 65.4614 273.765 66.1648C274.151 66.8683 274.801 67.3894 275.57 67.6139L327.326 82.6516C328.096 82.8745 328.923 82.7822 329.625 82.3951C330.327 82.0079 330.848 81.3575 331.072 80.5866L341.812 43.4821C342.034 42.7105 341.942 41.882 341.556 41.1785C341.169 40.4749 340.52 39.9536 339.75 39.729L287.994 24.6913Z" fill="#E6E6E6"/>
<path d="M326.581 51.3218L292.93 41.5448C292.616 41.4527 292.351 41.2394 292.193 40.9517C292.035 40.664 291.998 40.3253 292.089 40.01C292.181 39.6948 292.393 39.4286 292.68 39.2701C292.967 39.1115 293.305 39.0735 293.62 39.1643L327.27 48.9413C327.585 49.0329 327.851 49.2461 328.009 49.534C328.167 49.822 328.204 50.1611 328.113 50.4767C328.022 50.7924 327.809 51.0588 327.522 51.2173C327.234 51.3758 326.896 51.4134 326.581 51.3218Z" fill="#008896"/>
<path d="M324.141 59.7506L290.491 49.9735C290.335 49.9282 290.189 49.8525 290.062 49.7508C289.936 49.6491 289.83 49.5234 289.752 49.3808C289.673 49.2383 289.624 49.0816 289.606 48.9199C289.588 48.7581 289.602 48.5944 289.647 48.4381C289.693 48.2818 289.768 48.136 289.87 48.0089C289.971 47.8819 290.097 47.7761 290.239 47.6976C290.381 47.6191 290.538 47.5695 290.699 47.5516C290.86 47.5336 291.024 47.5477 291.18 47.593L324.83 57.3701C325.144 57.4622 325.41 57.6754 325.567 57.9632C325.725 58.2509 325.762 58.5896 325.671 58.9048C325.58 59.2201 325.367 59.4862 325.081 59.6448C324.794 59.8033 324.456 59.8414 324.141 59.7506Z" fill="#008896"/>
<path d="M321.701 68.1788L288.051 58.4018C287.737 58.3097 287.472 58.0964 287.314 57.8087C287.156 57.5209 287.119 57.1823 287.21 56.867C287.301 56.5518 287.514 56.2856 287.801 56.1271C288.087 55.9685 288.425 55.9305 288.74 56.0213L322.39 65.7983C322.705 65.8899 322.971 66.1031 323.129 66.391C323.288 66.679 323.325 67.0181 323.234 67.3337C323.142 67.6494 322.93 67.9158 322.642 68.0743C322.355 68.2327 322.016 68.2704 321.701 68.1788Z" fill="#008896"/>
<path d="M664 472.667H121.174V475H664V472.667Z" fill="#E6E6E6"/>
<path d="M436.349 469.019H348.077L351.069 430.047H433.357L436.349 469.019Z" fill="#E6E6E6"/>
<path d="M442.333 464.523H343.589V473.517H442.333V464.523Z" fill="#E6E6E6"/>
<path d="M561.275 178.97H223.899C221.518 178.97 219.235 179.918 217.551 181.605C215.868 183.291 214.922 185.579 214.922 187.964V394.072H570.252V187.964C570.252 186.783 570.02 185.614 569.569 184.522C569.117 183.431 568.456 182.44 567.623 181.605C566.789 180.77 565.8 180.107 564.71 179.655C563.621 179.203 562.454 178.97 561.275 178.97Z" fill="#3F3D56"/>
<path d="M214.922 394.072V427.798C214.922 428.979 215.154 430.149 215.605 431.24C216.056 432.331 216.718 433.323 217.551 434.158C218.385 434.993 219.374 435.656 220.463 436.108C221.553 436.559 222.72 436.792 223.899 436.792H561.275C563.656 436.792 565.939 435.845 567.623 434.158C569.306 432.471 570.252 430.184 570.252 427.798V394.072H214.922Z" fill="#E6E6E6"/>
<path d="M553.046 197.708H232.875V377.583H553.046V197.708Z" fill="#E6E6E6"/>
<path d="M392.961 424.051C397.919 424.051 401.938 420.024 401.938 415.057C401.938 410.09 397.919 406.063 392.961 406.063C388.003 406.063 383.984 410.09 383.984 415.057C383.984 420.024 388.003 424.051 392.961 424.051Z" fill="#3F3D56"/>
<path d="M242.858 205.305C243.799 205.305 244.562 204.541 244.562 203.598C244.562 202.656 243.799 201.891 242.858 201.891C241.918 201.891 241.155 202.656 241.155 203.598C241.155 204.541 241.918 205.305 242.858 205.305Z" fill="white"/>
<path d="M249.325 205.305C250.266 205.305 251.028 204.541 251.028 203.598C251.028 202.656 250.266 201.891 249.325 201.891C248.384 201.891 247.621 202.656 247.621 203.598C247.621 204.541 248.384 205.305 249.325 205.305Z" fill="white"/>
<path d="M255.791 205.305C256.732 205.305 257.495 204.541 257.495 203.598C257.495 202.656 256.732 201.891 255.791 201.891C254.85 201.891 254.087 202.656 254.087 203.598C254.087 204.541 254.85 205.305 255.791 205.305Z" fill="white"/>
<path d="M543.819 209.398H241.155V360.464H543.819V209.398Z" fill="white"/>
<path d="M261.274 232.376C260.99 232.376 260.718 232.489 260.518 232.69C260.317 232.891 260.204 233.164 260.204 233.448V287.635C260.204 287.919 260.317 288.191 260.518 288.392C260.718 288.593 260.99 288.706 261.274 288.707H323.733C324.016 288.706 324.288 288.593 324.489 288.392C324.689 288.191 324.802 287.919 324.803 287.635V233.448C324.802 233.164 324.689 232.891 324.489 232.69C324.288 232.489 324.016 232.376 323.733 232.376H261.274Z" fill="#E6E6E6"/>
<path d="M361.559 232.55C361.276 232.55 361.004 232.663 360.803 232.864C360.602 233.065 360.489 233.338 360.489 233.622V287.635C360.489 287.919 360.602 288.192 360.803 288.393C361.004 288.594 361.276 288.707 361.559 288.707H423.819C424.103 288.706 424.375 288.593 424.575 288.392C424.776 288.191 424.888 287.919 424.889 287.635V233.622C424.888 233.338 424.776 233.066 424.575 232.865C424.375 232.664 424.103 232.551 423.819 232.55H361.559Z" fill="#E6E6E6"/>
<path d="M460.793 231.984C460.509 231.984 460.237 232.097 460.037 232.298C459.836 232.499 459.724 232.772 459.723 233.056V287.635C459.724 287.919 459.836 288.191 460.037 288.392C460.237 288.593 460.509 288.706 460.793 288.707H523.7C523.984 288.706 524.256 288.593 524.456 288.392C524.657 288.191 524.769 287.919 524.77 287.635V233.056C524.769 232.772 524.657 232.499 524.456 232.298C524.256 232.097 523.984 231.984 523.7 231.984H460.793Z" fill="#E6E6E6"/>
<path d="M262.416 315.529C261.83 315.53 261.268 315.764 260.854 316.18C260.44 316.595 260.208 317.158 260.208 317.745C260.208 318.332 260.44 318.896 260.854 319.311C261.268 319.727 261.83 319.961 262.416 319.962H321.139C321.725 319.961 322.287 319.727 322.701 319.311C323.115 318.896 323.347 318.332 323.347 317.745C323.347 317.158 323.115 316.595 322.701 316.18C322.287 315.764 321.725 315.53 321.139 315.529H262.416Z" fill="#E6E6E6"/>
<path d="M262.416 326.071C261.83 326.072 261.268 326.306 260.854 326.722C260.44 327.137 260.208 327.701 260.208 328.288C260.208 328.875 260.44 329.438 260.854 329.854C261.268 330.269 261.83 330.503 262.416 330.504H288.856C289.442 330.503 290.003 330.269 290.417 329.854C290.831 329.438 291.064 328.875 291.064 328.288C291.064 327.701 290.831 327.137 290.417 326.722C290.003 326.306 289.442 326.072 288.856 326.071H262.416Z" fill="#008896"/>
<path d="M363.779 315.529C363.193 315.53 362.631 315.764 362.217 316.18C361.803 316.595 361.571 317.158 361.571 317.745C361.571 318.332 361.803 318.896 362.217 319.311C362.631 319.727 363.193 319.961 363.779 319.962H422.502C423.088 319.961 423.65 319.727 424.064 319.311C424.478 318.896 424.71 318.332 424.71 317.745C424.71 317.158 424.478 316.595 424.064 316.18C423.65 315.764 423.088 315.53 422.502 315.529H363.779Z" fill="#E6E6E6"/>
<path d="M363.779 326.071C363.193 326.072 362.631 326.306 362.217 326.722C361.803 327.137 361.571 327.701 361.571 328.288C361.571 328.875 361.803 329.438 362.217 329.854C362.631 330.269 363.193 330.503 363.779 330.504H390.219C390.805 330.503 391.367 330.269 391.781 329.854C392.195 329.438 392.427 328.875 392.427 328.288C392.427 327.701 392.195 327.137 391.781 326.722C391.367 326.306 390.805 326.072 390.219 326.071H363.779Z" fill="#008896"/>
<path d="M462.608 315.529C462.022 315.53 461.461 315.764 461.047 316.18C460.633 316.595 460.4 317.158 460.4 317.745C460.4 318.332 460.633 318.896 461.047 319.311C461.461 319.727 462.022 319.961 462.608 319.962H521.332C521.918 319.961 522.48 319.727 522.894 319.311C523.307 318.896 523.54 318.332 523.54 317.745C523.54 317.158 523.307 316.595 522.894 316.18C522.48 315.764 521.918 315.53 521.332 315.529H462.608Z" fill="#E6E6E6"/>
<path d="M262.416 304.641C261.83 304.642 261.268 304.876 260.854 305.292C260.44 305.707 260.208 306.27 260.208 306.857C260.208 307.445 260.44 308.008 260.854 308.423C261.268 308.839 261.83 309.073 262.416 309.074H321.139C321.725 309.073 322.287 308.839 322.701 308.423C323.115 308.008 323.347 307.445 323.347 306.857C323.347 306.27 323.115 305.707 322.701 305.292C322.287 304.876 321.725 304.642 321.139 304.641H262.416Z" fill="#E6E6E6"/>
<path d="M363.779 304.641C363.193 304.642 362.631 304.876 362.217 305.292C361.803 305.707 361.571 306.27 361.571 306.857C361.571 307.445 361.803 308.008 362.217 308.423C362.631 308.839 363.193 309.073 363.779 309.074H422.502C423.088 309.073 423.65 308.839 424.064 308.423C424.478 308.008 424.71 307.445 424.71 306.857C424.71 306.27 424.478 305.707 424.064 305.292C423.65 304.876 423.088 304.642 422.502 304.641H363.779Z" fill="#E6E6E6"/>
<path d="M462.608 304.641C462.022 304.642 461.461 304.876 461.047 305.292C460.633 305.707 460.4 306.27 460.4 306.857C460.4 307.445 460.633 308.008 461.047 308.423C461.461 308.839 462.022 309.073 462.608 309.074H521.332C521.918 309.073 522.48 308.839 522.894 308.423C523.307 308.008 523.54 307.445 523.54 306.857C523.54 306.27 523.307 305.707 522.894 305.292C522.48 304.876 521.918 304.642 521.332 304.641H462.608Z" fill="#E6E6E6"/>
<path d="M462.608 326.071C462.022 326.072 461.461 326.306 461.047 326.722C460.633 327.137 460.4 327.701 460.4 328.288C460.4 328.875 460.633 329.438 461.047 329.854C461.461 330.269 462.022 330.503 462.608 330.504H489.048C489.634 330.503 490.196 330.269 490.61 329.854C491.024 329.438 491.256 328.875 491.256 328.288C491.256 327.701 491.024 327.137 490.61 326.722C490.196 326.306 489.634 326.072 489.048 326.071H462.608Z" fill="#008896"/>
</g>
<defs>
<clipPath id="clip0_101_372">
<rect width="664" height="475" fill="white"/>
</clipPath>
</defs>
</svg>
