<svg width="608" height="365" viewBox="0 0 608 365" fill="none" xmlns="http://www.w3.org/2000/svg">
<g clip-path="url(#clip0_101_430)">
<path d="M38.2461 76.5066C30.6817 76.5066 23.2872 74.2631 16.9977 70.0597C10.7081 65.8564 5.80603 59.8821 2.91127 52.8922C0.0165105 45.9023 -0.740891 38.2108 0.734845 30.7904C2.21058 23.37 5.85319 16.554 11.202 11.2041C16.5508 5.85432 23.3657 2.21105 30.7847 0.735043C38.2037 -0.740968 45.8937 0.0165746 52.8823 2.91187C59.8709 5.80717 65.8441 10.7102 70.0466 17.0009C74.2492 23.2916 76.4923 30.6875 76.4923 38.2533C76.4808 48.3952 72.4476 58.1184 65.2776 65.2898C58.1075 72.4612 48.3861 76.4951 38.2461 76.5066ZM38.2461 1.59391C30.9969 1.59391 23.9105 3.74394 17.883 7.77213C11.8556 11.8003 7.15771 17.5257 4.38356 24.2244C1.60941 30.923 0.883574 38.294 2.29782 45.4052C3.71207 52.5164 7.20288 59.0485 12.3288 64.1754C17.4548 69.3023 23.9857 72.7938 31.0956 74.2083C38.2055 75.6228 45.5751 74.8968 52.2725 72.1221C58.9698 69.3475 64.6942 64.6488 68.7216 58.6202C72.7491 52.5916 74.8987 45.5038 74.8987 38.2533C74.8877 28.534 71.0225 19.2159 64.1512 12.3434C57.2799 5.47078 47.9636 1.60492 38.2461 1.59391Z" fill="#F2F2F2"/>
<path d="M298.001 54.1921C294.219 54.1921 290.522 53.0704 287.377 50.9687C284.232 48.867 281.781 45.8799 280.334 42.3849C278.887 38.89 278.508 35.0443 279.246 31.3341C279.984 27.6239 281.805 24.2158 284.479 21.5409C287.154 18.866 290.561 17.0444 294.271 16.3064C297.98 15.5684 301.825 15.9471 305.319 17.3948C308.814 18.8424 311.8 21.2939 313.902 24.4393C316.003 27.5847 317.124 31.2826 317.124 35.0655C317.119 40.1364 315.102 44.998 311.517 48.5837C307.932 52.1694 303.071 54.1864 298.001 54.1921ZM298.001 17.5327C294.534 17.5327 291.145 18.561 288.262 20.4875C285.38 22.4141 283.133 25.1523 281.806 28.356C280.479 31.5597 280.132 35.0849 280.809 38.486C281.485 41.887 283.155 45.011 285.606 47.463C288.058 49.915 291.181 51.5848 294.582 52.2613C297.982 52.9379 301.506 52.5907 304.71 51.2636C307.913 49.9366 310.65 47.6894 312.577 44.8062C314.503 41.9229 315.531 38.5331 315.531 35.0655C315.526 30.4171 313.677 25.9607 310.391 22.6738C307.104 19.3869 302.649 17.538 298.001 17.5327Z" fill="#F2F2F2"/>
<path d="M432.66 147.434C428.405 147.434 424.245 146.172 420.707 143.808C417.17 141.444 414.412 138.083 412.784 134.151C411.156 130.22 410.73 125.893 411.56 121.719C412.39 117.545 414.439 113.711 417.447 110.702C420.456 107.693 424.289 105.643 428.463 104.813C432.636 103.983 436.961 104.409 440.893 106.037C444.824 107.666 448.184 110.424 450.547 113.963C452.911 117.501 454.173 121.661 454.173 125.917C454.167 131.622 451.898 137.091 447.865 141.125C443.832 145.159 438.363 147.428 432.66 147.434ZM432.66 105.993C428.72 105.993 424.869 107.162 421.593 109.351C418.317 111.54 415.764 114.652 414.256 118.293C412.748 121.933 412.354 125.939 413.123 129.804C413.891 133.669 415.788 137.219 418.574 140.005C421.36 142.791 424.909 144.689 428.774 145.458C432.638 146.227 436.643 145.832 440.283 144.324C443.923 142.816 447.034 140.262 449.222 136.986C451.411 133.71 452.58 129.858 452.58 125.917C452.574 120.635 450.473 115.571 446.739 111.835C443.004 108.1 437.941 105.999 432.66 105.993Z" fill="#F2F2F2"/>
<path d="M607.203 365H427.924C427.713 365 427.51 364.916 427.361 364.767C427.211 364.617 427.127 364.414 427.127 364.203C427.127 363.992 427.211 363.789 427.361 363.64C427.51 363.49 427.713 363.406 427.924 363.406H607.203C607.414 363.406 607.617 363.49 607.767 363.64C607.916 363.789 608 363.992 608 364.203C608 364.414 607.916 364.617 607.767 364.767C607.617 364.916 607.414 365 607.203 365Z" fill="#CCCCCC"/>
<path d="M510.68 122.129C521.488 122.129 530.25 113.366 530.25 102.555C530.25 91.745 521.488 82.9816 510.68 82.9816C499.871 82.9816 491.109 91.745 491.109 102.555C491.109 113.366 499.871 122.129 510.68 122.129Z" fill="#FFB8B8"/>
<path d="M512.71 334.989L503.461 338.131L486.941 303.943L500.592 299.306L512.71 334.989Z" fill="#FFB8B8"/>
<path d="M495.956 337.733L513.794 331.673L517.609 342.906L488.539 352.782C488.038 351.307 487.833 349.747 487.934 348.193C488.036 346.638 488.443 345.118 489.131 343.721C489.82 342.323 490.777 341.075 491.948 340.048C493.119 339.02 494.481 338.234 495.956 337.733Z" fill="#2F2E41"/>
<path d="M533.609 354.301L523.853 354.791L517.318 317.387L531.718 316.662L533.609 354.301Z" fill="#FFB8B8"/>
<path d="M516.744 352.353L535.56 351.408L536.155 363.257L505.493 364.798C505.414 363.242 505.643 361.686 506.166 360.218C506.69 358.751 507.497 357.401 508.541 356.245C509.586 355.089 510.848 354.151 512.256 353.483C513.663 352.816 515.188 352.432 516.744 352.353Z" fill="#2F2E41"/>
<path d="M475.55 230.022C476.425 229.243 477.119 228.281 477.582 227.205C478.045 226.129 478.267 224.964 478.231 223.793C478.195 222.622 477.904 221.473 477.376 220.427C476.849 219.381 476.098 218.464 475.178 217.739L484.479 190.823L470.144 194.487L463.509 219.485C462.394 221.113 461.915 223.092 462.162 225.049C462.41 227.006 463.366 228.804 464.85 230.103C466.335 231.402 468.244 232.111 470.216 232.096C472.188 232.081 474.086 231.343 475.55 230.022Z" fill="#FFB8B8"/>
<path d="M532.697 343.023C532.571 343.023 532.445 343.016 532.319 343.003L519.076 341.601C518.263 341.519 517.502 341.159 516.922 340.582C516.342 340.006 515.978 339.247 515.891 338.434L505.656 247.176L498.25 272.148L512.058 321.226C512.198 321.726 512.229 322.251 512.147 322.763C512.065 323.276 511.873 323.765 511.583 324.196C511.294 324.627 510.915 324.99 510.471 325.261C510.028 325.531 509.531 325.701 509.016 325.761L495.591 327.304C494.737 327.399 493.876 327.184 493.165 326.7C492.455 326.215 491.941 325.492 491.716 324.662L477.048 269.431C476.928 268.977 476.897 268.504 476.96 268.038L483.552 218.469L532.726 222.413L536.281 339.327C536.296 339.807 536.214 340.285 536.041 340.733C535.867 341.181 535.605 341.589 535.271 341.934C534.937 342.279 534.537 342.553 534.095 342.74C533.653 342.927 533.177 343.023 532.697 343.023Z" fill="#2F2E41"/>
<path d="M515.699 230.889C499.225 230.889 480.573 224.523 479.443 224.132L479.117 224.019L497.702 128.637L498.044 128.651C505.409 128.95 525.509 129.103 525.711 129.105L526.072 129.108L533.818 213.28L535.203 225.591L535.034 225.729C530.294 229.561 523.224 230.889 515.699 230.889Z" fill="#008896"/>
<path d="M485.937 222.646L474.312 217.963L480.237 146.283C480.38 144.516 480.917 142.803 481.81 141.272C482.703 139.74 483.928 138.429 485.396 137.434L491.513 133.27C491.34 132.682 491.309 132.06 491.422 131.457C491.536 130.854 491.791 130.287 492.166 129.802C492.542 129.316 493.027 128.927 493.582 128.666C494.137 128.404 494.746 128.278 495.359 128.298L497.111 128.354C497.444 128.13 497.837 128.011 498.239 128.014C498.64 128.017 499.032 128.141 499.362 128.37C499.691 128.6 499.944 128.923 500.087 129.299C500.229 129.674 500.255 130.084 500.161 130.475L499.776 138.069L485.937 222.646Z" fill="#2F2E41"/>
<path d="M480.071 209.796L464.893 209.157L469.81 177.524L473.884 147.759C473.964 146.691 474.285 145.654 474.822 144.726C475.359 143.799 476.099 143.005 476.986 142.403C477.873 141.802 478.885 141.409 479.945 141.254C481.005 141.099 482.087 141.185 483.109 141.507C484.701 142.007 486.067 143.051 486.966 144.456C487.866 145.862 488.242 147.54 488.029 149.195L483.902 181.445L480.071 209.796Z" fill="#2F2E41"/>
<path d="M504.104 223.743L504.001 223.423C503.931 223.204 497.09 201.259 508.536 175.071L514.275 146.52L519.18 128.593C519.272 128.272 519.437 127.978 519.663 127.733C519.889 127.487 520.168 127.298 520.48 127.18C520.846 127.053 521.241 127.037 521.617 127.133C521.992 127.23 522.33 127.435 522.59 127.722C526.009 126.718 529.684 127.086 532.837 128.747L539.725 132.376C541.256 133.183 542.477 134.476 543.195 136.051C543.914 137.626 544.089 139.395 543.694 141.081L534.28 181.265L538.856 218.799L504.104 223.743Z" fill="#2F2E41"/>
<path d="M514.128 208.271C515.292 208.398 516.47 208.267 517.579 207.889C518.688 207.511 519.7 206.894 520.545 206.083C521.389 205.271 522.046 204.284 522.467 203.191C522.889 202.098 523.067 200.926 522.986 199.757L544.306 183.961L536.854 180.427L513.865 192.271C511.911 192.536 510.121 193.508 508.836 195.004C507.551 196.5 506.859 198.416 506.891 200.388C506.923 202.36 507.678 204.252 509.012 205.705C510.346 207.158 512.166 208.071 514.128 208.271Z" fill="#FFB8B8"/>
<path d="M527.494 201.201L520.293 187.757L538.051 176.067L529.386 144.979C529.038 143.734 528.952 142.431 529.131 141.151C529.31 139.872 529.75 138.642 530.426 137.541C531.101 136.439 531.996 135.488 533.055 134.748C534.114 134.008 535.314 133.494 536.58 133.239C538.819 132.792 541.142 133.174 543.121 134.312C545.099 135.45 546.597 137.267 547.337 139.426L559.03 173.803C559.271 174.511 559.285 175.277 559.069 175.993C558.853 176.71 558.418 177.34 557.826 177.797L527.494 201.201Z" fill="#2F2E41"/>
<path d="M512.064 106.707C509.718 107.012 507.949 104.612 507.128 102.392C506.307 100.173 505.682 97.5895 503.642 96.3907C500.856 94.753 497.29 96.7228 494.104 96.1824C490.505 95.5722 488.165 91.7576 487.982 88.1115C487.799 84.4654 489.249 80.9586 490.673 77.5969L491.17 81.7747C491.103 80.3588 491.401 78.9494 492.035 77.6815C492.669 76.4136 493.617 75.3296 494.789 74.5331L494.149 80.6634C494.285 79.8176 494.587 79.0071 495.037 78.2783C495.488 77.5496 496.077 76.9169 496.773 76.4167C497.468 75.9165 498.255 75.5585 499.089 75.3634C499.923 75.1682 500.788 75.1398 501.633 75.2796L501.532 78.9322C505.688 78.4379 509.881 77.9428 514.05 78.3194C518.219 78.696 522.417 80.0153 525.576 82.7613C530.302 86.8688 532.029 93.6324 531.449 99.8679C530.87 106.103 528.296 111.961 525.614 117.62C524.939 119.044 524.006 120.65 522.441 120.832C521.035 120.995 519.748 119.819 519.311 118.473C518.974 117.091 518.987 115.647 519.349 114.272C519.744 112.17 520.243 110.022 519.871 107.916C519.499 105.81 517.984 103.728 515.862 103.47C513.739 103.212 511.567 105.639 512.588 107.518L512.064 106.707Z" fill="#2F2E41"/>
<path d="M256.018 321.628L248.4 318.42L243.174 280.224H173.582L167.918 318.264L161.102 321.672C160.776 321.835 160.515 322.104 160.36 322.434C160.206 322.764 160.167 323.137 160.251 323.492C160.335 323.847 160.536 324.163 160.822 324.389C161.108 324.616 161.462 324.739 161.826 324.739H255.39C255.764 324.739 256.126 324.609 256.415 324.373C256.704 324.136 256.903 323.807 256.977 323.44C257.051 323.074 256.996 322.693 256.821 322.363C256.646 322.033 256.363 321.773 256.018 321.628Z" fill="#E6E6E6"/>
<path d="M379.688 285.306H37.8326C36.039 285.302 34.3202 284.586 33.0534 283.316C31.7865 282.046 31.075 280.326 31.075 278.532V230.317H386.446V278.532C386.446 280.326 385.734 282.046 384.467 283.316C383.2 284.586 381.482 285.302 379.688 285.306Z" fill="#CCCCCC"/>
<path d="M386.803 253.104H30.763V46.8022C30.7655 44.6371 31.6265 42.5615 33.1572 41.0306C34.6879 39.4998 36.7631 38.6386 38.9278 38.6362H378.638C380.803 38.6387 382.878 39.4998 384.409 41.0307C385.939 42.5615 386.8 44.6371 386.803 46.8022V253.104Z" fill="#3F3D56"/>
<path d="M365.538 238.131H52.0278C50.359 238.129 48.7591 237.465 47.5791 236.285C46.399 235.105 45.7353 233.505 45.7334 231.835V59.905C45.7353 58.2359 46.399 56.6356 47.579 55.4554C48.759 54.2751 50.359 53.6112 52.0278 53.6093H365.538C367.207 53.6112 368.807 54.2751 369.987 55.4554C371.167 56.6356 371.831 58.2359 371.832 59.905V231.835C371.831 233.505 371.167 235.105 369.987 236.285C368.807 237.465 367.207 238.129 365.538 238.131Z" fill="white"/>
<path d="M362.587 325.137H59.0082C58.7969 325.137 58.5942 325.053 58.4448 324.904C58.2954 324.754 58.2114 324.552 58.2114 324.34C58.2114 324.129 58.2954 323.926 58.4448 323.777C58.5942 323.627 58.7969 323.543 59.0082 323.543H362.587C362.798 323.543 363.001 323.627 363.151 323.777C363.3 323.926 363.384 324.129 363.384 324.34C363.384 324.552 363.3 324.754 363.151 324.904C363.001 325.053 362.798 325.137 362.587 325.137Z" fill="#CCCCCC"/>
<path d="M336.085 216.769H81.4808C81.2695 216.769 81.0668 216.685 80.9174 216.535C80.768 216.386 80.684 216.183 80.684 215.972V93.9171C80.684 93.7057 80.768 93.503 80.9174 93.3535C81.0668 93.2041 81.2695 93.1201 81.4808 93.1201C81.6921 93.1201 81.8948 93.2041 82.0442 93.3535C82.1937 93.503 82.2776 93.7057 82.2776 93.9171V215.175H336.085C336.296 215.175 336.499 215.259 336.648 215.408C336.798 215.558 336.882 215.76 336.882 215.972C336.882 216.183 336.798 216.386 336.648 216.535C336.499 216.685 336.296 216.769 336.085 216.769Z" fill="#3F3D56"/>
<path d="M135.879 208.002H112.721C112.094 208.001 111.493 207.752 111.05 207.309C110.606 206.865 110.357 206.264 110.356 205.637V173.708C110.357 173.081 110.606 172.48 111.05 172.036C111.493 171.593 112.094 171.343 112.721 171.343H135.879C136.506 171.343 137.107 171.593 137.55 172.036C137.994 172.48 138.243 173.081 138.244 173.708V205.637C138.243 206.264 137.994 206.865 137.55 207.309C137.107 207.752 136.506 208.001 135.879 208.002Z" fill="#008896"/>
<path d="M178.109 208.002H154.952C154.324 208.001 153.723 207.752 153.28 207.309C152.836 206.865 152.587 206.264 152.586 205.637V143.424C152.587 142.797 152.836 142.196 153.28 141.753C153.723 141.309 154.324 141.06 154.952 141.059H178.109C178.736 141.06 179.337 141.309 179.78 141.753C180.224 142.196 180.473 142.797 180.474 143.424V205.637C180.473 206.264 180.224 206.865 179.78 207.309C179.337 207.752 178.736 208.001 178.109 208.002Z" fill="#008896"/>
<path d="M220.339 208.002H197.182C196.555 208.001 195.953 207.752 195.51 207.309C195.067 206.865 194.817 206.264 194.816 205.637V173.708C194.817 173.081 195.067 172.48 195.51 172.036C195.953 171.593 196.555 171.343 197.182 171.343H220.339C220.966 171.343 221.567 171.593 222.011 172.036C222.454 172.48 222.703 173.081 222.704 173.708V205.637C222.703 206.264 222.454 206.865 222.011 207.309C221.567 207.752 220.966 208.001 220.339 208.002Z" fill="#008896"/>
<path d="M262.569 208.002H239.412C238.799 208.015 238.206 207.785 237.763 207.362C237.319 206.938 237.062 206.357 237.047 205.744V131.363C237.062 130.75 237.319 130.168 237.763 129.745C238.206 129.322 238.799 129.092 239.412 129.105H262.569C263.182 129.092 263.775 129.322 264.218 129.745C264.662 130.168 264.919 130.75 264.934 131.363V205.744C264.919 206.357 264.662 206.938 264.218 207.362C263.775 207.785 263.182 208.015 262.569 208.002Z" fill="#008896"/>
<path d="M304.799 208.002H281.642C281.015 208.001 280.414 207.752 279.97 207.309C279.527 206.865 279.277 206.264 279.277 205.637V109.953C279.277 109.326 279.527 108.724 279.97 108.281C280.414 107.837 281.015 107.588 281.642 107.587H304.799C305.426 107.588 306.027 107.837 306.471 108.281C306.914 108.724 307.164 109.326 307.164 109.953V205.637C307.164 206.264 306.914 206.865 306.471 207.309C306.027 207.752 305.426 208.001 304.799 208.002Z" fill="#008896"/>
<path d="M124.3 161.78C126.94 161.78 129.081 159.639 129.081 156.998C129.081 154.357 126.94 152.216 124.3 152.216C121.66 152.216 119.519 154.357 119.519 156.998C119.519 159.639 121.66 161.78 124.3 161.78Z" fill="#3F3D56"/>
<path d="M166.53 130.699C169.171 130.699 171.311 128.558 171.311 125.917C171.311 123.276 169.171 121.135 166.53 121.135C163.89 121.135 161.749 123.276 161.749 125.917C161.749 128.558 163.89 130.699 166.53 130.699Z" fill="#3F3D56"/>
<path d="M208.76 161.78C211.401 161.78 213.541 159.639 213.541 156.998C213.541 154.357 211.401 152.216 208.76 152.216C206.12 152.216 203.98 154.357 203.98 156.998C203.98 159.639 206.12 161.78 208.76 161.78Z" fill="#3F3D56"/>
<path d="M250.99 115.557C253.631 115.557 255.771 113.416 255.771 110.775C255.771 108.134 253.631 105.993 250.99 105.993C248.35 105.993 246.21 108.134 246.21 110.775C246.21 113.416 248.35 115.557 250.99 115.557Z" fill="#3F3D56"/>
<path d="M293.221 98.024C295.861 98.024 298.001 95.8832 298.001 93.2424C298.001 90.6015 295.861 88.4607 293.221 88.4607C290.58 88.4607 288.44 90.6015 288.44 93.2424C288.44 95.8832 290.58 98.024 293.221 98.024Z" fill="#3F3D56"/>
<path d="M208.861 158.069L166.53 126.357L124.778 157.635L123.822 156.36L166.53 124.365L208.66 155.927L250.524 110.104L250.692 110.036L292.923 93.0176L293.519 94.4959L251.457 111.446L208.861 158.069Z" fill="#3F3D56"/>
</g>
<defs>
<clipPath id="clip0_101_430">
<rect width="608" height="365" fill="white"/>
</clipPath>
</defs>
</svg>
