<svg width="596" height="367" viewBox="0 0 596 367" fill="none" xmlns="http://www.w3.org/2000/svg">
<g clip-path="url(#clip0_101_227)">
<path opacity="0.1" d="M596 235.491C596.01 245.425 594.809 255.323 592.422 264.966C591.62 268.212 590.687 271.394 589.624 274.511C588.322 278.354 586.815 282.125 585.11 285.807C584.25 287.666 583.341 289.492 582.383 291.283C582.398 301.47 580.301 311.549 576.225 320.885C568.852 337.632 555.711 351.173 539.194 359.044C528.853 363.977 517.552 366.569 506.095 366.636H113.141C95.6562 366.675 78.473 362.082 63.3385 353.325C61.1019 352.03 58.9226 350.65 56.8007 349.185C52.1935 346.002 47.8649 342.433 43.8618 338.517C38.4423 333.215 33.6678 327.292 29.6376 320.869C20.1689 305.832 15.1529 288.42 15.1705 270.65C5.58138 253.822 -0.0101318 233.664 -0.0101318 212.003C-0.0101318 184.674 8.87557 159.744 23.4742 140.872C26.5178 136.929 29.8516 133.219 33.4479 129.773C36.9963 126.363 40.8102 123.241 44.8536 120.435C48.0874 118.187 51.4684 116.158 54.974 114.362C56.4364 113.613 57.9038 112.915 59.3966 112.262C60.7072 111.68 62.0329 111.139 63.3739 110.627C64.983 110.013 66.6124 109.452 68.262 108.942C69.9117 108.433 71.5394 107.984 73.1451 107.596C75.5065 107.019 77.9084 106.55 80.3508 106.189C82.3749 105.89 84.399 105.683 86.4231 105.521C88.0322 105.406 89.6548 105.339 91.291 105.318H92.1765C93.9779 105.318 95.7693 105.389 97.5454 105.511C97.7326 105.136 97.935 104.757 98.1222 104.382C98.8307 103.036 99.5644 101.69 100.303 100.369V100.333C100.43 100.106 100.556 99.8779 100.688 99.6552C101.285 98.5772 101.907 97.5094 102.545 96.4516C102.838 95.9455 103.127 95.4698 103.425 94.989C103.491 94.8726 103.557 94.7613 103.633 94.6449C103.936 94.1388 104.245 93.6327 104.559 93.1266C106.121 90.6332 107.745 88.1787 109.432 85.7629C109.579 85.5554 109.715 85.353 109.862 85.1505C110.125 84.776 110.368 84.4066 110.661 84.0371C111.36 83.0604 112.078 82.0785 112.802 81.1119C113.308 80.4287 113.814 79.7454 114.36 79.0875C115.676 77.387 117.027 75.6967 118.409 74.0266C119.79 72.3564 121.247 70.6762 122.72 69.0314C122.922 68.8037 123.125 68.581 123.337 68.3532L125.498 65.9999C125.604 65.8885 125.695 65.7873 125.796 65.6861C126.055 65.4078 126.302 65.1294 126.581 64.8561C127.74 63.6314 128.929 62.4218 130.123 61.2274C136.223 55.1655 142.721 49.5184 149.574 44.3238C149.842 44.1113 150.116 43.9088 150.384 43.7064C151.669 42.7347 152.975 41.7782 154.28 40.8368C161.462 35.6863 168.969 31.0037 176.753 26.818C177.289 26.5143 177.836 26.2259 178.387 25.9374C185.367 22.2465 192.545 18.9418 199.888 16.0382C203.889 14.4558 207.961 12.978 212.103 11.6048C214.846 10.709 217.599 9.85367 220.387 9.07429C224.698 7.83604 229.063 6.71926 233.482 5.72394C246.502 2.80218 259.747 0.997297 273.073 0.328963C277.122 0.116403 281.215 0.0101244 285.355 0.0101244C305.327 -0.016321 325.222 2.50065 344.559 7.50033C344.759 7.80252 345.032 8.04887 345.354 8.2162C345.675 8.38353 346.034 8.46635 346.396 8.45685H348.096C348.835 8.65423 349.568 8.86173 350.307 9.07429C354.433 10.2653 358.5 11.5626 362.507 12.9662L363.519 13.3306C373.411 16.8483 383.035 21.0768 392.317 25.9829C400.683 30.3967 408.739 35.3747 416.429 40.8824C417.613 41.7326 418.78 42.5913 419.93 43.4584C421.327 42.5575 422.747 41.6989 424.191 40.8824C429.767 37.7079 435.689 35.1845 441.841 33.3618C454.703 29.555 468.312 29.0227 481.432 31.8131C498.257 35.3811 513.488 44.2378 525.79 56.8345C530.801 61.9718 535.265 67.6165 539.108 73.6773C539.387 74.1126 539.665 74.5529 539.933 74.9983C543.23 80.3808 546.064 86.034 548.404 91.8968C548.49 92.1093 548.576 92.3168 548.652 92.5294C550.812 98.016 552.554 103.658 553.864 109.408C553.924 109.696 553.995 109.99 554.056 110.283C555.281 115.847 556.113 121.491 556.546 127.172C556.546 127.374 556.546 127.582 556.586 127.789C556.799 130.728 556.907 133.699 556.91 136.701C556.91 139.384 556.819 142.046 556.652 144.682C556.652 144.971 556.611 145.275 556.586 145.568C556.541 146.337 556.475 147.086 556.409 147.861C560.274 150.977 563.891 154.388 567.228 158.064C568.702 159.673 570.129 161.345 571.509 163.079C575.712 168.346 579.406 174.001 582.54 179.967C591.082 196.152 596 215.151 596 235.491Z" fill="#008896"/>
<path opacity="0.1" d="M538.82 335.106C538.82 346.609 526.898 357.374 506.096 366.646H113.141C94.9596 366.646 77.9321 360.067 63.3384 348.593C59.6698 344.241 57.7368 339.732 57.7368 335.101C57.7368 322.874 71.2172 311.461 94.5244 301.815L95.1823 301.552C101.761 298.854 109.113 296.309 117.149 293.915C117.351 293.854 117.558 293.798 117.761 293.728C124.137 291.855 130.919 290.08 138.108 288.403C138.336 288.353 138.558 288.297 138.786 288.257C141.559 287.599 144.388 286.986 147.277 286.374L148.39 286.141C169.415 281.779 193.315 278.317 219.233 275.969H219.263C222.893 275.631 226.562 275.329 230.269 275.063C234.393 274.734 238.568 274.455 242.788 274.197C246.012 273.99 249.275 273.813 252.549 273.651C252.561 273.646 252.574 273.643 252.587 273.643C252.6 273.643 252.613 273.646 252.625 273.651C267.396 272.907 282.658 272.517 298.263 272.517C336.852 272.517 373.326 274.886 405.646 279.096C405.676 279.091 405.707 279.091 405.737 279.096C410.706 279.744 415.584 280.427 420.34 281.156C421.702 281.369 423.058 281.581 424.389 281.799C429.756 282.666 434.985 283.582 440.075 284.547C499.937 295.929 538.82 314.346 538.82 335.106Z" fill="#008896"/>
<path d="M440.996 123.123C440.996 123.123 435.642 120.952 418.61 128.761C401.577 136.57 399.452 135.583 395.044 134.409C390.637 133.235 388.178 132.931 383.452 126.407C383.452 126.407 380.117 108.335 376.873 105.531C373.63 102.727 359.937 107.13 359.937 107.13C359.937 107.13 343.496 110.901 340.364 88.9108C340.364 88.9108 342.585 72.3514 339.559 67.2702C339.559 67.2702 345.672 69.9019 355.752 65.6507C365.832 61.3995 373.903 70.2308 373.903 70.2308C373.903 70.2308 376.433 76.8101 376.18 80.7374C375.927 84.6647 377.526 86.1374 382.333 84.2395C382.333 84.2395 384.696 80.8791 381.352 75.3221C378.007 69.7652 375.618 65.6304 376.549 61.3185C377.48 57.0066 380.167 51.0195 388.795 48.0284C397.423 45.0374 409.137 44.4858 414.759 42.1223C420.381 39.7588 421.767 38.2507 421.767 38.2507C421.767 38.2507 418.306 41.7174 426.458 56.4195C434.61 71.1216 429.413 77.4984 429.413 77.4984C429.413 77.4984 425.077 87.8379 405.929 86.9978C405.929 86.9978 387.479 87.6709 397.539 95.4951C397.539 95.4951 403.981 94.1843 413.61 91.1224C423.24 88.0606 430.193 100.698 431.918 109.489C433.644 118.28 440.996 123.123 440.996 123.123Z" fill="#008896"/>
<path d="M416.196 49.3848L416.297 49.3544C417.036 52.1582 408.793 63.434 401.744 72.3969L401.663 72.3312C411.601 59.7091 416.768 51.5559 416.196 49.3848Z" fill="#444053"/>
<path d="M401.805 72.1591L401.85 72.2704C396.218 79.4266 389.139 87.9593 383.472 94.3007C382.93 94.903 382.394 95.5356 381.878 96.1834L381.716 96.0518C382.222 95.404 382.773 94.7663 383.315 94.1641C388.977 87.848 396.168 79.3203 401.805 72.1591Z" fill="#444053"/>
<path d="M381.853 95.8899L381.964 96.0822C371.651 108.962 370.968 128.978 370.943 129.135L368.767 126.605C368.792 126.443 371.469 108.861 381.853 95.8899Z" fill="#444053"/>
<path d="M429.059 116.139C429.059 116.139 416.915 109.813 407.422 112.09C397.929 114.367 376.58 104.043 376.58 104.043C376.58 104.043 367.522 100.364 365.7 96.1682C365.7 96.1682 359.481 89.589 359.122 86.1931C358.763 82.7972 352.716 74.2391 348.769 73.9102" stroke="#444053" stroke-miterlimit="10"/>
<path d="M427.273 122.227C427.273 122.227 421.15 118.097 421.864 113.289" stroke="#444053" stroke-miterlimit="10"/>
<path d="M417.881 127.556C417.881 127.556 409.122 124.378 408.267 111.908" stroke="#444053" stroke-miterlimit="10"/>
<path d="M403.758 130.785C403.758 130.785 395.389 123.841 398.167 111.705" stroke="#444053" stroke-miterlimit="10"/>
<path d="M386.761 127.394C386.761 127.394 381.195 115.703 386.149 108.097" stroke="#444053" stroke-miterlimit="10"/>
<path d="M429.175 108.431C429.175 108.431 422.845 110.455 424.201 113.775" stroke="#444053" stroke-miterlimit="10"/>
<path d="M421.535 96.9577C421.535 96.9577 413.059 99.6451 412.861 111.634" stroke="#444053" stroke-miterlimit="10"/>
<path d="M409.714 94.1641C409.714 94.1641 401.997 103.689 402.564 112.343" stroke="#444053" stroke-miterlimit="10"/>
<path d="M396.203 97.899C396.203 97.899 388.542 105.227 389.519 109.301" stroke="#444053" stroke-miterlimit="10"/>
<path d="M391.583 95.3129C391.583 95.3129 384.398 96.5984 383.391 94.24" stroke="#444053" stroke-miterlimit="10"/>
<path d="M382.247 86.6384C382.247 86.6384 385.875 91.4463 386.801 90.3684" stroke="#444053" stroke-miterlimit="10"/>
<path d="M418.235 83.5968C418.235 83.5968 400.12 84.9127 396.021 79.4468" stroke="#444053" stroke-miterlimit="10"/>
<path d="M378.457 62.4066C378.457 62.4066 386.953 80.6513 393.132 82.9743" stroke="#444053" stroke-miterlimit="10"/>
<path d="M387.353 53.7169C387.353 53.7169 392.57 70.499 399.037 75.7371" stroke="#444053" stroke-miterlimit="10"/>
<path d="M425.856 69.745C425.856 69.745 412.082 75.6562 403.814 69.6741" stroke="#444053" stroke-width="0.75" stroke-miterlimit="10"/>
<path d="M399.619 50.1389C399.619 50.1389 402.766 62.4724 407.007 65.4533" stroke="#444053" stroke-width="0.75" stroke-miterlimit="10"/>
<path d="M423.776 55.9235C423.776 55.9235 416.034 58.8589 413.15 56.6118" stroke="#444053" stroke-width="0.75" stroke-miterlimit="10"/>
<path d="M375.613 90.667C375.613 90.667 375.613 101.422 372.689 102.186" stroke="#444053" stroke-miterlimit="10"/>
<path d="M351.684 104.6C351.684 104.6 363.322 105.612 368.671 99.5945" stroke="#444053" stroke-miterlimit="10"/>
<path d="M372.618 77.964C372.618 77.964 369.804 88.8703 362.042 91.8107" stroke="#444053" stroke-miterlimit="10"/>
<path d="M344.711 93.1114C344.711 93.1114 352.939 95.9708 360.018 88.6881" stroke="#444053" stroke-miterlimit="10"/>
<path d="M363.464 68.5861C363.464 68.5861 362.69 77.8476 357.655 82.1848" stroke="#444053" stroke-miterlimit="10"/>
<path d="M345.024 78.9964C345.024 78.9964 351.851 79.0419 353.45 76.8151" stroke="#444053" stroke-miterlimit="10"/>
<path d="M394.397 114.165H199.984V212.317H394.397V114.165Z" fill="#33323D"/>
<path d="M455.575 242.136H139.424V306.744H455.575V242.136Z" fill="#33323D"/>
<path d="M214.891 258.286H377.005L409.304 367H180.73L214.891 258.286Z" fill="white"/>
<path d="M130.416 203.617V237.166V244.231V306.739H190.977V247.106H404.021V306.739H464.582V244.231V237.166V203.617H130.416Z" fill="#504F60"/>
<path opacity="0.1" d="M464.582 203.617H130.416V237.161H464.582V203.617Z" fill="#33323D"/>
<path opacity="0.8" d="M446.572 225.364C449.317 225.364 451.542 223.139 451.542 220.394C451.542 217.65 449.317 215.424 446.572 215.424C443.828 215.424 441.603 217.65 441.603 220.394C441.603 223.139 443.828 225.364 446.572 225.364Z" fill="#8CCF4D"/>
<path opacity="0.8" d="M424.211 225.364C426.956 225.364 429.181 223.139 429.181 220.394C429.181 217.65 426.956 215.424 424.211 215.424C421.467 215.424 419.242 217.65 419.242 220.394C419.242 223.139 421.467 225.364 424.211 225.364Z" fill="#FA5959"/>
<path d="M387.257 90.5556H207.129V197.402H387.257V90.5556Z" fill="white"/>
<path d="M414.658 246.504C415.037 250.639 411.915 254.652 412.826 258.701C413.018 259.566 413.393 260.386 413.529 261.231C413.904 263.635 412.472 265.913 411.1 267.927L399.346 285.225C398.874 285.984 398.31 286.681 397.666 287.3C395.414 289.324 392.044 289.092 389.094 289.689C387.02 290.11 385.061 290.973 383.35 292.219C383.276 292.278 383.227 292.363 383.212 292.457C383.198 292.551 383.221 292.647 383.274 292.725C383.761 293.393 384.406 293.928 385.152 294.281C385.898 294.635 386.721 294.796 387.545 294.75C387.854 295.155 387.545 295.762 387.12 296.045C386.488 296.481 385.602 296.597 385.496 297.67C385.451 298.043 385.526 298.42 385.708 298.748C386.184 299.473 386.922 299.984 387.768 300.175C391.816 301.42 396.234 299.234 399.28 296.258C402.326 293.282 404.512 289.527 407.503 286.495C409.157 284.82 411.045 283.383 412.745 281.758C416.145 278.519 418.817 274.577 421.347 270.624C422.183 269.478 422.813 268.195 423.21 266.834C423.523 265.487 423.382 264.065 423.746 262.729C424.222 260.983 425.502 259.591 426.564 258.124C428.654 255.249 430.046 251.737 429.768 248.194C429.489 244.651 427.303 241.164 423.963 239.96C422.928 239.548 421.788 239.478 420.71 239.763C419.338 240.183 418.331 241.316 417.395 242.399L415.164 244.975C414.608 245.546 414.166 246.217 413.863 246.954C413.72 247.326 413.686 247.731 413.768 248.121C413.85 248.511 414.043 248.868 414.324 249.151" fill="#FBBEBE"/>
<path opacity="0.05" d="M414.658 246.504C415.037 250.639 411.915 254.652 412.826 258.701C413.018 259.566 413.393 260.386 413.529 261.231C413.904 263.635 412.472 265.913 411.1 267.927L399.346 285.225C398.874 285.984 398.31 286.681 397.666 287.3C395.414 289.324 392.044 289.092 389.094 289.689C387.02 290.11 385.061 290.973 383.35 292.219C383.276 292.278 383.227 292.363 383.212 292.457C383.198 292.551 383.221 292.647 383.274 292.725C383.761 293.393 384.406 293.928 385.152 294.281C385.898 294.635 386.721 294.796 387.545 294.75C387.854 295.155 387.545 295.762 387.12 296.045C386.488 296.481 385.602 296.597 385.496 297.67C385.451 298.043 385.526 298.42 385.708 298.748C386.184 299.473 386.922 299.984 387.768 300.175C391.816 301.42 396.234 299.234 399.28 296.258C402.326 293.282 404.512 289.527 407.503 286.495C409.157 284.82 411.045 283.383 412.745 281.758C416.145 278.519 418.817 274.577 421.347 270.624C422.183 269.478 422.813 268.195 423.21 266.834C423.523 265.487 423.382 264.065 423.746 262.729C424.222 260.983 425.502 259.591 426.564 258.124C428.654 255.249 430.046 251.737 429.768 248.194C429.489 244.651 427.303 241.164 423.963 239.96C422.928 239.548 421.788 239.478 420.71 239.763C419.338 240.183 418.331 241.316 417.395 242.399L415.164 244.975C414.608 245.546 414.166 246.217 413.863 246.954C413.72 247.326 413.686 247.731 413.768 248.121C413.85 248.511 414.043 248.868 414.324 249.151" fill="black"/>
<path d="M423.559 352.931C420.988 354.494 417.79 354.596 414.805 354.226C414.298 354.171 413.757 354.135 413.448 354.505C413.003 355.046 413.529 355.836 414.071 356.271C415.835 357.591 417.905 358.443 420.087 358.746C422.035 359.017 424 359.148 425.967 359.135C431.331 359.226 436.725 359.317 442.038 358.543C442.345 358.52 442.644 358.432 442.914 358.285C443.257 358.046 443.494 357.683 443.577 357.273C443.946 355.896 443.243 354.408 442.185 353.452C441.128 352.495 439.766 351.959 438.436 351.427L433.77 349.611C432.672 349.18 430.916 348.052 429.722 348.138C427.541 348.315 425.411 351.848 423.559 352.931Z" fill="#3F3D56"/>
<path opacity="0.05" d="M423.559 352.931C420.988 354.494 417.79 354.596 414.805 354.226C414.298 354.171 413.757 354.135 413.448 354.505C413.003 355.046 413.529 355.836 414.071 356.271C415.835 357.591 417.905 358.443 420.087 358.746C422.035 359.017 424 359.148 425.967 359.135C431.331 359.226 436.725 359.317 442.038 358.543C442.345 358.52 442.644 358.432 442.914 358.285C443.257 358.046 443.494 357.683 443.577 357.273C443.946 355.896 443.243 354.408 442.185 353.452C441.128 352.495 439.766 351.959 438.436 351.427L433.77 349.611C432.672 349.18 430.916 348.052 429.722 348.138C427.541 348.315 425.411 351.848 423.559 352.931Z" fill="black"/>
<path d="M426.812 290.959C424.874 293.545 422.86 296.526 423.341 299.73C423.599 301.456 424.566 302.979 425.274 304.573C426.161 306.766 426.817 309.046 427.232 311.375C427.961 314.761 428.69 318.157 429.135 321.593C429.641 325.475 427.263 336.705 427.04 340.617C426.984 341.559 426.878 342.581 426.22 343.259C425.962 343.527 425.618 343.765 425.507 344.094C425.436 344.429 425.49 344.778 425.659 345.076C426.757 347.551 428.998 349.388 431.488 350.441C433.978 351.493 440.035 353.3 442.737 353.396C443.096 353.439 443.46 353.391 443.794 353.254C444.159 353.036 444.446 352.709 444.614 352.318C446.567 348.588 444.69 335.308 444.72 331.093C444.72 327.55 445.576 324.088 445.424 320.576C445.297 317.757 444.543 315.009 444.27 312.195C443.82 307.584 444.665 302.959 445.515 298.404C446.163 294.917 446.81 291.425 447.64 287.973C448.146 285.873 448.733 283.747 449.892 281.9C450.808 280.448 452.053 279.238 453.1 277.851C456.003 274.045 457.292 269.249 456.688 264.501C456.627 264.035 449.948 266.196 449.366 266.449C446.969 267.469 444.763 268.889 442.843 270.65C441.325 272.117 440.085 274.086 438.729 275.736C436.816 278.064 434.929 280.41 433.067 282.776C430.952 285.492 428.867 288.22 426.812 290.959Z" fill="#464353"/>
<path opacity="0.05" d="M426.812 290.792C424.874 293.378 422.86 296.359 423.341 299.568C423.599 301.289 424.566 302.812 425.274 304.406C426.16 306.6 426.816 308.879 427.232 311.208C427.961 314.594 428.69 317.99 429.135 321.426C429.641 325.308 427.263 336.543 427.04 340.455C426.984 341.392 426.878 342.419 426.22 343.092C425.962 343.36 425.618 343.598 425.507 343.927C425.43 344.272 425.484 344.632 425.659 344.939C426.757 347.409 428.998 349.251 431.488 350.299C433.978 351.346 440.035 352.323 442.737 352.409C443.096 352.453 443.46 352.404 443.794 352.268C444.159 352.049 444.446 351.722 444.614 351.331C446.567 347.601 444.69 335.167 444.72 330.956C444.72 327.413 445.576 323.946 445.424 320.434C445.297 317.615 444.543 314.867 444.27 312.053C443.82 307.443 444.665 302.817 445.515 298.267C446.163 294.775 446.81 291.283 447.64 287.832C448.146 285.731 448.733 283.606 449.892 281.758C450.808 280.311 452.053 279.096 453.1 277.74C456 273.932 457.288 269.138 456.688 264.389C456.627 263.919 449.948 266.08 449.366 266.338C446.967 267.358 444.761 268.782 442.843 270.548C441.325 272.021 440.085 273.985 438.729 275.609C436.816 277.937 434.929 280.286 433.067 282.654C430.952 285.353 428.867 288.066 426.812 290.792Z" fill="black"/>
<path d="M405.21 234.018C411.227 234.018 416.105 229.14 416.105 223.122C416.105 217.104 411.227 212.226 405.21 212.226C399.193 212.226 394.316 217.104 394.316 223.122C394.316 229.14 399.193 234.018 405.21 234.018Z" fill="#FBBEBE"/>
<path d="M415.017 222.667C416.023 224.274 417.342 225.662 418.896 226.749C420.449 227.835 422.205 228.599 424.06 228.993L423.24 231.964C421.823 237.09 420.204 242.511 416.272 246.063C416.702 244.328 416.145 242.46 415.164 240.967C414.114 239.515 412.869 238.214 411.465 237.101L405.195 231.645C405.008 231.507 404.849 231.335 404.725 231.139C404.573 230.755 404.573 230.328 404.725 229.944C405.524 227.459 407.806 225.896 409.653 224.225C410.582 223.355 411.414 222.386 412.133 221.336C413.418 219.549 414.192 221.336 415.017 222.667Z" fill="#FBBEBE"/>
<path d="M390.855 212.17L390.612 210.146C392.332 210.591 393.962 209.134 395.06 207.615C396.158 206.097 397.18 204.316 398.855 203.688C400.879 202.919 403.045 204.149 404.988 205.161C407.166 206.373 409.558 207.155 412.031 207.464C412.426 207.477 412.817 207.542 413.195 207.656C414.46 208.106 415.063 209.68 415.245 211.133C415.427 212.585 415.376 214.104 416.004 215.389C416.474 216.361 417.289 217.084 417.785 218.041C419.116 220.622 417.831 224.144 419.237 226.675L415.746 223.471C415.422 223.178 414.971 222.874 414.622 223.122C414.273 223.37 414.324 223.745 414.207 224.084C413.868 225.096 412.629 225.379 411.723 224.99C410.817 224.6 410.164 223.74 409.501 222.965C407.958 221.143 406.121 219.544 403.935 218.765C402.989 218.402 401.977 218.245 400.965 218.306C399.954 218.366 398.967 218.641 398.07 219.114C396.441 220.035 395.247 222.181 393.253 222.257C390.516 222.358 389.377 217.262 388.107 215.247C388.569 214.897 388.894 214.396 389.026 213.831C389.157 213.266 389.086 212.673 388.825 212.155C389.048 212.069 390.819 211.841 390.855 212.17Z" fill="#464353"/>
<path d="M436.265 352.845C434.112 354.765 431.316 355.807 428.432 355.765C427.698 355.765 426.681 355.906 426.676 356.64C426.689 356.859 426.762 357.069 426.888 357.248C427.802 358.766 429.243 359.894 430.936 360.416C432.505 360.891 434.185 360.81 435.825 360.73L440.606 360.482C441.507 360.431 442.413 360.385 443.314 360.274C444.214 360.163 445.186 359.975 446.127 359.839C448.432 359.509 450.764 359.399 453.09 359.51C453.707 359.535 454.421 359.51 454.805 359.044C455.19 358.579 454.982 357.738 454.841 357.065C454.557 355.679 454.841 354.226 454.578 352.834C454.117 350.39 452.017 348.522 449.7 347.637C447.549 346.817 443.734 345.881 441.694 347.242C439.508 348.71 438.193 351.099 436.265 352.845Z" fill="#3F3D56"/>
<path d="M441.001 271.054C441.426 273.079 443.364 274.597 443.425 276.622C443.471 278.261 442.297 279.658 441.457 281.05C440.654 282.508 439.977 284.032 439.432 285.605C437.836 289.687 435.857 293.61 433.522 297.321C432.399 299.097 431.144 301.03 431.402 303.121C431.579 304.096 431.921 305.034 432.414 305.894L435.779 312.58C436.518 313.915 437.096 315.334 437.5 316.805C437.788 318.076 437.818 319.392 438.006 320.687C438.537 324.787 440.46 328.916 439.326 332.889C439.225 333.233 438.871 333.648 438.603 333.395C439.711 335.47 440.627 337.565 440.52 339.919C440.475 341.154 440.095 342.449 440.556 343.593C440.816 344.038 440.988 344.53 441.062 345.041C441.062 345.375 440.905 345.693 440.87 346.053C440.779 346.999 441.644 347.789 442.55 348.077C443.455 348.366 444.432 348.355 445.343 348.629C447.099 349.135 448.344 350.653 449.846 351.706C451.368 352.761 453.166 353.347 455.018 353.391C455.28 353.419 455.545 353.366 455.777 353.239C455.91 353.124 456.016 352.982 456.089 352.822C456.163 352.662 456.201 352.489 456.202 352.313C456.283 351.475 456.156 350.63 455.833 349.852C455.51 349.075 455.001 348.389 454.35 347.854C454.067 347.674 453.833 347.427 453.667 347.136C453.581 346.877 453.559 346.601 453.601 346.331C453.874 342.652 453.808 338.955 453.404 335.288C453.221 334.127 453.162 332.949 453.227 331.776C453.328 330.799 453.621 329.827 453.51 328.851C453.399 327.874 452.908 326.993 452.614 326.052C452.108 324.382 452.24 322.59 452.184 320.839C452.093 317.802 451.4 314.827 450.707 311.871C450.438 310.712 450.135 309.492 449.31 308.632C448.612 307.903 447.483 307.2 447.746 306.228C447.89 305.868 448.107 305.543 448.384 305.272C448.71 304.864 448.95 304.393 449.088 303.889C449.227 303.386 449.261 302.859 449.189 302.341C449.485 302.42 449.799 302.392 450.076 302.263C450.354 302.133 450.577 301.91 450.707 301.633C456.177 299.057 460.599 293.895 462.547 288.166C462.657 287.743 462.827 287.339 463.053 286.966C463.56 286.258 464.44 285.954 465.219 285.559C467.668 284.329 469.364 282.016 470.917 279.754C471.823 278.438 472.724 277.082 473.113 275.538C473.326 274.541 473.428 273.522 473.417 272.502L473.553 267.228C473.581 266.888 473.547 266.545 473.452 266.216C473.323 265.901 473.13 265.617 472.885 265.381C471.402 263.801 469.451 262.737 467.319 262.345C465.882 262.086 464.415 262.137 462.962 262.016C460.144 261.783 457.361 260.912 454.542 261.115C450.11 261.439 446.168 264.511 444.078 268.433C443.344 269.835 442.575 271.054 441.001 271.054Z" fill="#464353"/>
<path d="M416.409 236.761C416.473 237.575 416.364 238.392 416.09 239.16C415.746 239.899 414.875 240.471 414.121 240.172C414.349 239.666 413.742 239.064 413.18 239.13C412.902 239.192 412.644 239.32 412.427 239.505C412.21 239.689 412.041 239.923 411.935 240.188C411.558 240.94 411.432 241.793 411.576 242.622C411.753 243.634 412.35 244.646 412.193 245.659C412.067 246.519 411.434 247.379 411.773 248.189C411.991 248.553 412.265 248.881 412.583 249.161C413.028 249.706 413.246 250.402 413.192 251.104C413.139 251.805 412.817 252.46 412.295 252.931L420.786 253.098C420.477 254.52 421.11 255.973 421.838 257.233C423.877 260.697 426.69 263.641 430.057 265.836C433.424 268.031 437.253 269.417 441.244 269.885C441.029 270.013 440.844 270.186 440.704 270.393C440.563 270.6 440.47 270.836 440.431 271.083C440.393 271.33 440.409 271.583 440.48 271.823C440.55 272.063 440.673 272.284 440.839 272.471C441.527 273.155 442.696 273.069 443.562 272.623C444.427 272.178 445.11 271.444 445.899 270.877C447.292 269.885 448.994 269.425 450.697 269.582C451.759 269.683 452.791 270.027 453.859 270.088C457.007 270.255 459.709 267.993 462.72 267.051C464.926 266.373 467.42 266.373 469.298 264.996C470.097 264.404 470.75 263.433 470.517 262.466C470.32 261.911 470.008 261.404 469.601 260.978C468.534 259.602 467.906 257.942 467.147 256.378C465.633 253.278 463.551 250.49 461.009 248.159C459.094 246.48 457.065 244.936 454.937 243.538C454.419 243.151 453.867 242.813 453.287 242.526C452.514 242.274 451.76 241.968 451.03 241.61C450.018 240.982 449.457 239.874 448.693 238.978C447.008 237.014 444.422 236.109 442.347 234.565C440.956 233.553 439.731 232.166 438.066 231.665C437.262 231.422 436.401 231.402 435.592 231.159C433.76 230.602 432.424 228.973 430.623 228.315C429.196 227.809 427.627 227.93 426.119 227.743C424.46 227.537 422.876 226.935 421.499 225.987C421.042 225.618 420.53 225.324 419.981 225.116C417.709 224.423 417.522 228.659 417.309 230.132C416.97 232.384 416.409 234.55 416.409 236.761Z" fill="#008896"/>
<path d="M418.625 250.983C419.004 255.118 415.882 259.126 416.793 263.18C416.985 264.045 417.36 264.865 417.497 265.71C417.876 268.114 416.439 270.391 415.068 272.401L403.313 289.659C402.841 290.417 402.277 291.114 401.633 291.734C399.381 293.758 396.011 293.525 393.061 294.122C390.987 294.544 389.028 295.407 387.318 296.653C387.243 296.712 387.194 296.797 387.18 296.891C387.166 296.985 387.188 297.081 387.242 297.159C387.727 297.827 388.372 298.363 389.119 298.716C389.865 299.07 390.688 299.231 391.512 299.183C391.821 299.593 391.512 300.195 391.087 300.479C390.455 300.919 389.569 301.036 389.463 302.108C389.419 302.481 389.493 302.858 389.676 303.186C390.153 303.91 390.89 304.421 391.735 304.614C395.783 305.859 400.201 303.672 403.247 300.696C406.293 297.721 408.479 293.965 411.475 290.934C413.13 289.259 415.017 287.821 416.712 286.197C420.118 282.958 422.759 279.015 425.315 275.063C426.149 273.916 426.779 272.634 427.177 271.272C427.49 269.926 427.349 268.504 427.713 267.168C428.189 265.422 429.469 264.025 430.532 262.562C432.621 259.688 434.013 256.175 433.735 252.633C433.456 249.09 431.27 245.603 427.931 244.398C426.896 243.984 425.754 243.914 424.677 244.201C423.311 244.621 422.299 245.755 421.363 246.838L419.131 249.414C418.575 249.983 418.135 250.655 417.836 251.393C417.691 251.763 417.657 252.167 417.738 252.556C417.819 252.945 418.011 253.302 418.291 253.584" fill="#FBBEBE"/>
<path d="M424.576 233.993C423.027 234.084 421.327 234.236 420.234 235.339C419.779 235.846 419.41 236.424 419.141 237.05C418.084 239.211 417.051 241.468 416.975 243.872C416.91 245.795 417.481 247.673 417.76 249.576C418.003 251.155 417.385 252.764 417.254 254.363C419.171 253.776 421.702 252.977 423.442 251.985C424.583 251.238 425.795 250.608 427.06 250.102C428.907 249.49 432.009 250.542 433.75 251.408C433.846 250.173 432.925 248.032 433.021 246.797C433.037 246.28 433.129 245.769 433.294 245.279C433.557 244.76 433.867 244.267 434.221 243.806C434.892 242.72 435.201 241.449 435.104 240.175C435.006 238.902 434.507 237.693 433.679 236.721C432.126 234.97 429.687 234.312 427.364 234.044C425.9 233.873 424.424 233.82 422.951 233.887" fill="#008896"/>
<path d="M195.324 198.587L185.345 184.112C185.345 184.112 185.158 180.529 184.505 179.694C183.852 178.859 184.363 176.997 184.363 176.997C184.363 176.997 185.067 175.985 184.459 175.878C183.852 175.772 184.363 173.505 184.363 173.505L184.318 169.876C184.318 169.876 184.879 166.384 184.414 165.549C184.276 165.322 184.207 165.061 184.216 164.796C184.224 164.531 184.308 164.274 184.459 164.056C184.459 164.056 185.016 162.057 184.459 161.525C183.903 160.994 184.039 157.897 184.176 155.427C184.313 152.957 183.199 151.565 183.199 151.196C183.199 150.827 179.516 147.193 179.516 146.864C179.516 146.535 177.183 145.189 175.781 144.839C174.379 144.49 173.686 144.187 173.732 143.999C173.777 143.812 171.541 143.073 171.541 143.073C171.541 143.073 169.582 142.931 168.833 141.955C168.085 140.978 165.797 140.694 165.742 140.684L165.696 140.492C165.696 140.421 165.671 140.35 165.656 140.279C165.84 139.985 166.009 139.681 166.162 139.369L166.293 139.085C167.113 139.09 167.914 138.841 168.585 138.372C168.916 138.097 169.186 137.757 169.379 137.373C169.572 136.989 169.682 136.569 169.704 136.14C169.744 135.279 169.555 134.424 169.157 133.66C168.747 132.825 168.145 131.954 168.358 131.043C168.449 130.654 168.682 130.309 168.803 129.925C168.984 129.174 168.864 128.382 168.469 127.718C168.115 127.045 167.624 126.448 167.229 125.795C166.729 124.959 166.394 124.035 166.243 123.072C166.214 122.56 166.093 122.058 165.883 121.589C165.672 121.259 165.392 120.978 165.064 120.764C163.603 119.723 161.842 119.189 160.049 119.246C158.779 119.287 157.519 119.631 156.254 119.474C155.5 119.344 154.759 119.151 154.037 118.897C152.474 118.431 150.667 118.244 149.306 119.14C147.945 120.036 147.404 121.797 146.477 123.189C145.663 124.403 144.453 125.426 143.846 126.731C143.846 126.731 143.846 126.681 143.846 126.66C143.693 126.958 143.576 127.272 143.497 127.597C143.323 128.628 143.394 129.685 143.704 130.684C143.773 131.222 144.042 131.713 144.458 132.06C144.919 132.359 145.551 132.288 146.088 132.384L146.027 132.648C145.481 135.264 145.938 137.99 147.307 140.284C148.677 142.579 150.859 144.276 153.42 145.037C153.42 145.133 153.42 145.224 153.42 145.32C153.419 145.588 153.402 145.855 153.369 146.12C153.369 146.12 148.679 145.153 147.419 145.806C146.159 146.459 143.689 146.97 143.315 147.324C142.94 147.679 142.009 147.42 141.169 149.607C140.329 151.793 140.238 154.025 139.145 155.052C138.052 156.08 137.516 156.773 137.465 157.517C137.415 158.261 137.607 158.448 137.187 158.681C136.767 158.914 136.175 159.891 136.347 160.265C136.411 160.521 136.398 160.791 136.307 161.039C136.217 161.287 136.055 161.502 135.841 161.657C135.62 161.812 135.443 162.023 135.328 162.268C135.214 162.513 135.166 162.784 135.188 163.054C135.188 163.054 134.905 164.066 134.252 164.314C133.599 164.562 133.179 166.08 133.179 166.08L131.064 168.509L126.874 163.874C126.56 163.527 126.121 163.319 125.653 163.296C125.186 163.272 124.728 163.434 124.38 163.747L122.32 165.599C121.526 165.792 120.809 166.219 120.261 166.824C119.814 167.287 119.453 167.825 119.193 168.413L118.07 169.426C117.715 169.865 117.497 170.4 117.445 170.963C117.393 171.525 117.508 172.091 117.776 172.589L120.463 175.559V175.585C119.511 175.668 118.607 176.037 117.867 176.642C113.859 180.185 113.819 183.439 114.416 184.927C115.013 186.415 120.104 192.139 120.104 192.139C120.104 192.139 123.059 195.98 127.325 198.02L127.294 198.055C127.206 198.147 127.124 198.243 127.046 198.344L126.975 198.435L126.91 198.526L126.834 198.637C126.813 198.667 126.795 198.697 126.778 198.728L126.697 198.86C126.678 198.889 126.661 198.92 126.647 198.951C126.611 199.012 126.581 199.073 126.55 199.133C126.539 199.153 126.529 199.173 126.52 199.194C126.48 199.275 126.439 199.356 126.404 199.447L126.363 199.538C126.338 199.599 126.318 199.66 126.292 199.725C126.277 199.765 126.263 199.806 126.252 199.847L126.191 200.029C126.175 200.072 126.161 200.116 126.151 200.161C126.151 200.226 126.11 200.292 126.095 200.363C126.08 200.434 126.07 200.444 126.06 200.49C126.049 200.535 126.009 200.707 125.989 200.824C125.989 200.864 125.989 200.91 125.963 200.955C125.938 201.001 125.938 201.112 125.923 201.193C125.908 201.274 125.923 201.304 125.923 201.365L125.893 201.593V201.775C125.893 201.861 125.893 201.947 125.867 202.038C125.842 202.129 125.867 202.145 125.867 202.2C125.867 202.347 125.867 202.494 125.867 202.651C125.776 208.096 126.095 208.886 126.095 208.886C126.303 209.389 126.643 209.827 127.078 210.153C127.513 210.48 128.028 210.684 128.569 210.743C128.835 210.764 129.102 210.75 129.364 210.703C131.793 210.283 137.46 209.306 139.484 209.69C140.694 209.913 142.925 209.579 144.514 209.281L144.934 209.2L145.223 210.126L146.144 209.873L146.928 210.323L147.434 210.612C148.355 213.729 152.089 212.666 152.089 212.666L152.975 213.172L161.977 213.405C162.987 214.014 164.055 214.523 165.165 214.923C165.311 214.971 165.462 215.005 165.615 215.025C166.457 215.093 167.302 215.108 168.145 215.07C168.833 215.07 169.365 215.025 169.365 215.025C169.365 215.025 169.274 212.58 169.142 209.842C171.933 209.773 174.717 209.545 177.481 209.159C182.288 208.319 184.292 203.946 185.031 201.608C185.252 202.563 185.409 203.532 185.502 204.508C185.698 205.366 185.948 206.212 186.251 207.039C186.508 207.699 186.848 208.325 187.263 208.901C190.805 207.691 188.659 205.864 187.915 205.085C187.172 204.306 188.421 203.643 188.421 203.643C188.421 203.643 189.403 202.99 189.307 202.387C189.211 201.785 189.165 201.132 192.343 201.178C195.521 201.223 195.324 198.587 195.324 198.587ZM146.078 168.874C146.118 169.137 146.584 172.007 146.958 172.761C147.07 173.259 147.106 173.77 147.064 174.279C145.187 174.127 143.229 174.046 143.229 174.046C143.284 174.115 143.319 174.197 143.33 174.284L143.031 174.218L142.606 174.117L146.068 168.849L146.078 168.874ZM139.216 179.785L142.47 180.291L142.743 180.332C142.651 180.833 142.595 181.341 142.576 181.85C142.576 181.901 142.647 181.956 142.753 182.022C142.708 182.278 142.688 182.537 142.692 182.797C142.743 183.05 144.261 183.606 146.007 184.067C145.982 184.163 145.961 184.254 145.936 184.335C144.393 183.525 141.969 183.146 141.691 182.543C141.412 181.941 133.154 179.057 133.154 179.057L132.334 178.647L134.505 179.057L135.102 178.996C136.455 179.348 137.829 179.612 139.216 179.785Z" fill="url(#paint0_linear_101_227)"/>
<path d="M184.707 200.611C184.707 200.611 183.417 208.425 176.854 209.579C170.291 210.733 148.38 210.505 148.38 210.505C148.38 210.505 135.851 208.699 131.322 198.116C126.793 187.534 123.879 183.318 127.78 183.136C131.681 182.953 152.605 190.221 153.805 190.302C155.004 190.383 185.866 174.213 184.707 200.611Z" fill="#65617D"/>
<path opacity="0.05" d="M184.707 200.611C184.707 200.611 183.417 208.425 176.854 209.579C170.291 210.733 148.38 210.505 148.38 210.505C148.38 210.505 135.851 208.699 131.322 198.116C126.793 187.534 123.879 183.318 127.78 183.136C131.681 182.953 152.605 190.221 153.805 190.302C155.004 190.383 185.866 174.213 184.707 200.611Z" fill="black"/>
<path d="M125.953 209.311C126.157 209.811 126.492 210.247 126.923 210.572C127.354 210.898 127.866 211.1 128.402 211.158C128.668 211.175 128.935 211.159 129.197 211.113C131.601 210.698 137.238 209.726 139.226 210.1C140.42 210.318 142.632 209.989 144.205 209.696C145.253 209.498 146.022 209.311 146.022 209.311C146.022 209.311 144.17 203.162 143.942 202.98C143.715 202.797 135.618 197.919 135.618 197.919L129.212 197.458C128.35 197.587 127.57 198.044 127.036 198.733C126.363 199.553 125.781 200.895 125.741 203.096C125.635 208.516 125.953 209.311 125.953 209.311Z" fill="#3F3D56"/>
<path opacity="0.05" d="M125.953 209.311C126.157 209.811 126.492 210.247 126.923 210.572C127.354 210.898 127.866 211.1 128.402 211.158C127.775 210.348 127.194 209.503 126.662 208.628L126.697 204.144C126.57 202.914 126.732 201.671 127.172 200.515C127.611 199.36 128.315 198.323 129.227 197.488C129.227 197.488 125.852 197.716 125.756 203.126C125.66 208.537 125.953 209.311 125.953 209.311Z" fill="black"/>
<path opacity="0.1" d="M153.739 199.503L159.705 194.832L169.086 185.585L166.556 185.469C166.177 185.712 165.114 186.481 165.074 187.402C165.028 188.531 162.544 187.483 161.243 188.126C159.943 188.768 153.617 196.881 152.509 196.826C151.401 196.77 150.521 196.264 150.055 197.053L150.025 197.104L153.739 199.503Z" fill="black"/>
<path opacity="0.1" d="M127.021 198.744C127.234 198.845 127.451 198.946 127.669 199.037C132.198 200.981 137.789 205.05 138.209 205.788C138.462 206.239 141.706 208.208 144.205 209.685C145.253 209.488 146.022 209.301 146.022 209.301C146.022 209.301 144.17 203.152 143.942 202.969C143.715 202.787 135.618 197.909 135.618 197.909L129.212 197.448C128.341 197.578 127.555 198.043 127.021 198.744Z" fill="black"/>
<path d="M114.452 185.494C115.049 186.972 120.089 192.66 120.089 192.66C120.089 192.66 123.276 196.82 127.81 198.733C132.344 200.646 137.931 204.746 138.346 205.485C138.614 205.96 142.227 208.137 144.767 209.63L145.339 209.964L146.599 210.698L147.267 211.077C147.267 211.077 148.815 209.837 150.359 208.587C151.902 207.337 153.395 206.112 153.395 206.057C153.395 206.001 154.042 204.346 153.901 204.255C153.759 204.164 153.511 203.567 152.924 202.823C152.305 201.998 151.498 201.332 150.571 200.879C149.23 200.19 148.16 199.068 147.535 197.696C147.535 197.696 147.333 197.549 147.029 197.352C146.4 196.919 145.697 196.605 144.954 196.426C143.942 196.299 142.04 194.219 142.04 194.219C141.3 193.737 140.683 193.089 140.238 192.326C139.732 191.314 132.582 186.385 131.919 185.929L149.296 197.094L153.456 199.766L159.421 195.1L168.803 185.853L165.706 185.712C161.152 185.514 153.056 185.206 152.044 185.438C151.215 185.629 150.36 185.686 149.514 185.605C149.514 185.605 147.206 185.707 145.678 184.902C144.15 184.097 141.746 183.718 141.468 183.12C141.19 182.523 133.012 179.659 133.012 179.659C133.012 179.659 121.88 173.742 117.898 177.255C113.915 180.767 113.849 184.006 114.452 185.494Z" fill="#65617D"/>
<path d="M150.364 151.56L151.796 156.323L153.648 167.047L160.444 167.507L162.387 164.268L164.35 161.009C164.35 161.009 165.575 156.677 166.455 152.487C167.229 148.777 167.74 145.173 166.895 144.784C166.141 144.44 165.651 143.19 165.327 141.843C165.286 141.681 165.251 141.509 165.22 141.337C164.994 140.2 164.842 139.048 164.765 137.891C164.765 137.891 150.531 137.152 152.519 143.023C152.874 144.025 153.056 145.081 153.056 146.145C153.056 146.418 153.056 146.687 153.005 146.94C152.906 147.85 152.621 148.731 152.166 149.526C151.712 150.321 151.098 151.013 150.364 151.56Z" fill="#EE8E9E"/>
<path d="M147.409 150.776L147.915 158.873L149.068 165.761L150.364 168.955L151.523 186.405C151.523 186.405 162.655 187.696 165.377 186.38C165.578 186.303 165.753 186.171 165.883 186C169.157 181.056 168.085 166.733 168.085 166.733L169.329 157.487L168.499 152.689L166.475 152.476L164.927 152.309C164.927 152.309 164.578 152.74 164.072 153.408C162.7 155.214 160.181 158.777 160.353 160.26C160.58 162.284 160.074 164.375 159.285 164.699C158.495 165.022 157.853 165.579 157.716 165.022C157.519 164.556 157.47 164.04 157.575 163.545C157.716 162.755 156.972 160.351 156.972 160.351C156.972 160.351 155.728 157.532 155.819 156.333C155.91 155.133 155.682 153.742 155.313 153.418C154.943 153.094 154.432 152.77 154.847 151.292C155.262 149.814 153.025 146.935 153.025 146.935L147.409 150.776Z" fill="#E3E8F4"/>
<path opacity="0.1" d="M162.129 170.979L162.594 184.801L165.261 186.283C165.461 186.203 165.636 186.07 165.767 185.899C169.041 180.954 167.968 166.632 167.968 166.632L169.218 157.385L168.383 152.588L166.359 152.375C167.138 148.665 167.644 145.067 166.799 144.672C166.045 144.328 165.554 143.078 165.236 141.737L163.793 151.515C163.793 151.515 163.915 152.395 163.955 153.306C164.015 153.882 163.976 154.464 163.839 155.027C163.652 155.784 163.621 156.571 163.748 157.34C162.913 158.808 162.498 161.53 162.296 164.157C162.022 167.649 162.129 170.979 162.129 170.979Z" fill="black"/>
<path d="M165.276 141.494C165.276 141.494 167.609 141.783 168.348 142.754C169.086 143.726 171.03 143.868 171.03 143.868C171.03 143.868 173.246 144.607 173.2 144.789C173.155 144.971 173.848 145.254 175.224 145.624C176.601 145.993 178.923 147.334 178.923 147.648C178.923 147.962 182.572 151.575 182.572 151.945C182.572 152.314 183.68 153.701 183.543 156.151C183.407 158.6 183.265 161.718 183.822 162.224C184.378 162.73 183.822 164.719 183.822 164.719C183.672 164.935 183.588 165.19 183.58 165.454C183.572 165.717 183.64 165.976 183.776 166.202C184.237 167.032 183.68 170.498 183.68 170.498L183.731 174.107C183.731 174.107 183.225 176.369 183.822 176.465C184.419 176.561 183.731 177.574 183.731 177.574C183.731 177.574 183.225 179.421 183.867 180.256C184.51 181.091 184.697 184.644 184.697 184.644L194.59 199.022C194.59 199.022 194.732 201.659 191.589 201.613C188.447 201.568 188.487 202.215 188.583 202.813C188.68 203.41 187.703 204.063 187.703 204.063C187.703 204.063 186.458 204.71 187.197 205.495C187.936 206.279 190.061 208.086 186.549 209.286C186.135 208.715 185.795 208.094 185.537 207.438C185.24 206.623 184.993 205.789 184.798 204.943C184.798 204.943 184.475 201.426 183.827 200.965C183.179 200.505 183.27 198.283 183.27 198.283C183.27 198.283 184.196 196.481 182.901 195.753C181.605 195.024 162.842 184.618 162.842 184.618L162.387 170.792C162.387 170.792 162.063 160.574 164.006 157.153C163.879 156.384 163.91 155.597 164.097 154.84C164.421 154.01 164.052 151.328 164.052 151.328L165.276 141.494Z" fill="#3F3D56"/>
<path opacity="0.1" d="M153.162 147.061C153.162 147.061 148.517 146.105 147.267 146.752C146.017 147.4 143.573 147.906 143.219 148.271C142.865 148.635 141.928 148.367 141.093 150.538C140.259 152.709 140.172 154.931 139.105 155.948C138.037 156.965 137.491 157.659 137.445 158.398C137.399 159.137 137.582 159.324 137.167 159.552C136.752 159.779 136.155 160.756 136.332 161.126C136.509 161.495 145.946 169.633 145.946 169.633C145.946 169.633 146.412 172.73 146.827 173.515C147.242 174.299 146.366 185.119 145.44 185.858C144.514 186.597 151.659 186.537 151.659 186.537C151.659 186.537 151.983 179.451 152.261 179.067C152.54 178.682 152.074 171.116 152.074 171.116C152.074 171.116 152.029 164.643 152.631 162.932C153.233 161.222 153.137 155.533 153.137 155.533C153.137 155.533 153.668 152.122 154.316 151.328C154.963 150.533 153.162 147.061 153.162 147.061Z" fill="black"/>
<path d="M153.025 146.925C153.025 146.925 148.38 145.968 147.13 146.611C145.88 147.253 143.431 147.77 143.082 148.129C142.733 148.488 141.787 148.22 140.957 150.396C140.127 152.573 140.031 154.784 138.968 155.801C137.906 156.819 137.349 157.512 137.303 158.251C137.258 158.99 137.445 159.177 137.025 159.41C136.605 159.643 136.013 160.609 136.195 160.979C136.377 161.348 145.81 169.486 145.81 169.486C145.81 169.486 146.27 172.584 146.69 173.368C147.11 174.152 146.225 184.973 145.299 185.712C144.372 186.451 151.543 186.385 151.543 186.385C151.543 186.385 151.867 179.299 152.14 178.92C152.413 178.54 151.958 170.964 151.958 170.964C151.958 170.964 151.912 164.496 152.514 162.786C153.116 161.075 153.046 155.386 153.046 155.386C153.046 155.386 153.577 151.975 154.225 151.181C154.872 150.386 153.025 146.925 153.025 146.925Z" fill="#3F3D56"/>
<path opacity="0.1" d="M152.54 143.012C152.894 144.015 153.076 145.071 153.076 146.135C155.347 146.8 157.774 146.688 159.974 145.818C162.174 144.947 164.02 143.366 165.22 141.327C164.994 140.189 164.842 139.038 164.765 137.881C164.765 137.881 150.551 137.137 152.54 143.012Z" fill="black"/>
<path d="M145.511 135.704C145.509 138.418 146.549 141.028 148.415 142.998C150.281 144.967 152.832 146.145 155.541 146.289C158.25 146.433 160.911 145.531 162.975 143.771C165.039 142.01 166.349 139.524 166.634 136.825C166.92 134.127 166.159 131.422 164.508 129.268C162.858 127.115 160.445 125.676 157.765 125.25C155.086 124.824 152.345 125.443 150.109 126.978C147.872 128.514 146.309 130.849 145.744 133.503C145.589 134.226 145.511 134.964 145.511 135.704Z" fill="#EE8E9E"/>
<path d="M138.715 160.22L136.185 161.004C136.25 161.259 136.236 161.528 136.146 161.775C136.056 162.023 135.893 162.237 135.679 162.391C135.459 162.544 135.283 162.754 135.171 162.997C135.058 163.241 135.011 163.51 135.036 163.777C135.036 163.777 134.758 164.79 134.11 165.028C133.463 165.265 133.048 166.784 133.048 166.784L130.922 169.233C130.922 169.233 130.133 169.881 130.275 170.205C130.416 170.529 129.44 170.62 129.44 170.62L129.946 178.849L134.338 179.684L137.066 179.406L139.282 178.576L141.225 177.417L142.1 175.154L145.987 169.233L138.715 160.22Z" fill="#3F3D56"/>
<path d="M130.072 171.252C130.072 171.252 124.435 163.12 120.225 167.507C116.015 171.895 121.936 179.021 123.322 178.788C124.709 178.555 131.322 178.186 131.322 178.186L130.072 171.252Z" fill="#EE8E9E"/>
<path d="M143.353 167.736L118.451 155.024C118.068 154.828 117.598 154.98 117.403 155.364L107.693 174.391C107.497 174.774 107.649 175.244 108.032 175.44L132.934 188.151C133.317 188.347 133.787 188.195 133.982 187.811L143.692 168.784C143.888 168.401 143.736 167.931 143.353 167.736Z" fill="#3F3D56"/>
<path d="M141.036 168.866L118.938 157.585L110.438 174.241L132.536 185.522L141.036 168.866Z" fill="#008896"/>
<path d="M113.839 165.878C114.063 165.878 114.244 165.696 114.244 165.473C114.244 165.249 114.063 165.068 113.839 165.068C113.616 165.068 113.434 165.249 113.434 165.473C113.434 165.696 113.616 165.878 113.839 165.878Z" fill="#E6E8EC"/>
<path d="M137.759 178.404C138.13 178.404 138.432 178.102 138.432 177.731C138.432 177.359 138.13 177.057 137.759 177.057C137.387 177.057 137.086 177.359 137.086 177.731C137.086 178.102 137.387 178.404 137.759 178.404Z" fill="#E6E8EC"/>
<path d="M126.424 172.963C126.373 179.067 138.993 180.362 138.993 180.362L142.217 180.868L143.664 181.096L144.266 175.134C144.266 175.134 143.603 175.033 142.778 174.841C141.554 174.557 139.97 174.066 139.641 173.373C139.11 172.224 126.459 166.86 126.424 172.963Z" fill="#EE8E9E"/>
<path opacity="0.1" d="M145.744 133.503C146.034 133.524 146.308 133.646 146.518 133.847C146.872 134.227 146.892 134.9 147.358 135.132C147.532 135.206 147.724 135.227 147.91 135.193C149.139 135.021 149.848 133.634 151.032 133.25C151.72 133.073 152.448 133.135 153.096 133.427C153.36 133.512 153.597 133.664 153.784 133.867C154.179 134.373 153.901 135.132 154.083 135.75C154.336 136.61 155.363 136.949 156.249 137.061C157.134 137.172 158.136 137.238 158.728 137.906C158.924 138.156 159.065 138.446 159.141 138.754C159.217 139.063 159.226 139.385 159.168 139.697C159.115 139.915 159.115 140.143 159.168 140.36C159.411 141.054 160.611 140.948 160.924 140.401C161.157 140.001 161.086 139.672 161.628 139.561C162.015 139.53 162.403 139.598 162.756 139.758C163.698 140.081 164.69 140.234 165.686 140.209C166.319 138.858 166.66 137.388 166.686 135.896C166.711 134.405 166.422 132.924 165.835 131.552C165.249 130.18 164.379 128.948 163.283 127.936C162.187 126.923 160.89 126.154 159.476 125.679C158.062 125.203 156.563 125.032 155.078 125.176C153.593 125.32 152.156 125.777 150.86 126.515C149.564 127.254 148.438 128.259 147.558 129.463C146.677 130.667 146.06 132.044 145.749 133.503H145.744Z" fill="black"/>
<path d="M159.163 140.082C159.11 139.864 159.11 139.637 159.163 139.419C159.221 139.107 159.212 138.786 159.136 138.478C159.06 138.17 158.919 137.882 158.723 137.633C158.131 136.96 157.134 136.899 156.244 136.782C155.353 136.666 154.331 136.332 154.078 135.472C153.896 134.854 154.174 134.1 153.779 133.594C153.594 133.387 153.356 133.235 153.091 133.154C152.443 132.861 151.716 132.797 151.027 132.971C149.843 133.356 149.134 134.743 147.904 134.915C147.719 134.951 147.526 134.93 147.353 134.854C146.887 134.621 146.847 133.948 146.513 133.569C145.951 132.977 144.884 133.361 144.2 132.921C143.786 132.575 143.518 132.085 143.451 131.549C143.145 130.557 143.076 129.507 143.249 128.482C143.649 126.767 145.187 125.588 146.164 124.115C147.08 122.748 147.596 121.018 148.967 120.112C150.338 119.206 152.104 119.408 153.658 119.869C154.372 120.124 155.107 120.317 155.854 120.446C157.104 120.597 158.359 120.258 159.614 120.218C161.392 120.16 163.14 120.694 164.583 121.736C164.908 121.948 165.184 122.228 165.393 122.556C165.601 123.021 165.725 123.52 165.757 124.029C165.905 124.984 166.236 125.902 166.733 126.731C167.118 127.384 167.609 127.971 167.958 128.644C168.348 129.304 168.468 130.09 168.292 130.836C168.171 131.215 167.938 131.559 167.847 131.949C167.644 132.85 168.236 133.715 168.641 134.545C169.035 135.305 169.222 136.155 169.183 137.01C169.161 137.436 169.051 137.853 168.861 138.235C168.67 138.616 168.402 138.954 168.074 139.227C167.387 139.704 166.568 139.953 165.732 139.94C164.717 139.971 163.706 139.819 162.746 139.49C162.392 139.332 162.004 139.264 161.618 139.293C161.076 139.404 161.147 139.733 160.914 140.133C160.606 140.669 159.411 140.775 159.163 140.082Z" fill="#3F3D56"/>
<path opacity="0.1" d="M153.461 199.776L159.427 195.11L168.808 185.863L165.711 185.722C165.348 186.051 165.116 186.5 165.059 186.987C165.013 188.116 162.528 187.063 161.228 187.711C159.927 188.358 153.602 196.466 152.494 196.41C151.386 196.355 150.505 195.849 150.04 196.633L150.01 196.684C149.825 196.897 149.576 197.044 149.301 197.104L153.461 199.776Z" fill="black"/>
<path d="M141.443 199.452L144.438 209.022L144.909 210.541L146.336 210.151L149.483 209.286L163.49 205.439C165.254 205.363 166.981 204.903 168.55 204.093C171.198 202.609 174.228 201.948 177.254 202.195C179.106 202.367 181.165 201.568 182.875 198.41C182.875 198.41 186.757 186.947 176.96 183.662C167.164 180.377 166.693 185.408 166.693 185.408L166.556 185.489C166.177 185.732 165.114 186.501 165.074 187.422C165.028 188.551 162.544 187.503 161.243 188.146C159.943 188.789 153.617 196.901 152.509 196.846C151.401 196.79 150.521 196.284 150.055 197.073L150.025 197.124C149.681 197.595 148.653 197.706 147.97 197.721C147.758 197.732 147.545 197.732 147.333 197.721L147.242 197.747L146.533 197.959L141.443 199.452Z" fill="#65617D"/>
<path opacity="0.1" d="M142.217 180.873L143.664 181.101L144.266 175.139C144.266 175.139 143.603 175.038 142.779 174.846C142.996 175.681 142.5 178.895 142.217 180.873Z" fill="black"/>
<path opacity="0.1" d="M180.016 153.008C180.016 153.008 184.313 151.758 183.25 163.965C182.512 171.415 179.346 178.416 174.238 183.89C174.238 183.89 165.084 187.908 160.97 187.26C156.856 186.612 153.855 186.476 153.855 186.476C152.559 185.821 151.141 185.444 149.691 185.367C147.383 185.276 142.531 183.849 142.434 183.379C142.338 182.908 143.639 176.121 143.082 175.615C143.082 175.615 149.554 175.878 150.202 176.344C150.85 176.809 151.776 176.48 152.469 176.344C153.162 176.207 155.287 174.365 159.492 175.984C159.492 175.984 160.924 176.121 161.481 175.752C161.935 175.54 162.452 175.508 162.928 175.661C163.288 175.541 163.629 175.371 163.94 175.154C164.077 174.972 165.19 175.154 165.19 175.154C165.256 175.184 165.328 175.199 165.401 175.198C165.473 175.198 165.545 175.182 165.611 175.151C165.676 175.12 165.735 175.076 165.782 175.02C165.829 174.965 165.864 174.9 165.883 174.831C166.03 174.453 166.25 174.109 166.531 173.818C166.531 173.818 167.776 166.794 170.134 164.157C170.322 163.992 170.467 163.784 170.555 163.55C170.643 163.316 170.673 163.064 170.64 162.816C170.448 162.067 174.471 151.525 180.016 153.008Z" fill="black"/>
<path d="M179.9 152.066C179.9 152.066 184.201 150.821 183.139 163.023C182.403 170.474 179.236 177.476 174.126 182.948C174.126 182.948 164.973 186.972 160.859 186.324C156.745 185.676 153.739 185.524 153.739 185.524C152.445 184.869 151.028 184.492 149.579 184.416C147.267 184.32 142.414 182.898 142.323 182.427C142.232 181.956 143.522 175.17 142.971 174.658C142.971 174.658 149.443 174.927 150.09 175.392C150.738 175.858 151.659 175.524 152.352 175.392C153.046 175.261 155.171 173.414 159.381 175.028C159.381 175.028 160.813 175.17 161.365 174.8C161.819 174.59 162.334 174.556 162.812 174.704C163.17 174.582 163.511 174.411 163.824 174.198C163.96 174.011 165.069 174.198 165.069 174.198C165.135 174.228 165.207 174.243 165.279 174.242C165.352 174.241 165.424 174.225 165.489 174.194C165.555 174.164 165.613 174.119 165.66 174.064C165.707 174.009 165.742 173.944 165.762 173.874C165.908 173.497 166.128 173.153 166.41 172.862C166.41 172.862 167.659 165.837 170.018 163.201C170.206 163.036 170.35 162.827 170.439 162.593C170.527 162.359 170.556 162.107 170.524 161.859C170.336 161.131 174.354 150.604 179.9 152.066Z" fill="#3F3D56"/>
<path opacity="0.1" d="M146.518 197.934L152.621 205.323L152.661 205.282C152.707 205.141 153.309 203.572 153.167 203.476C153.025 203.379 151.968 201.072 149.843 200.1C148.762 199.573 147.854 198.747 147.226 197.721L146.518 197.934Z" fill="black"/>
<path opacity="0.1" d="M146.599 210.723L147.267 211.102C147.267 211.102 148.815 209.862 150.359 208.612C151.902 207.362 153.395 206.138 153.395 206.082C153.395 206.026 154.043 204.371 153.901 204.28C153.759 204.189 153.511 203.592 152.924 202.848C148.785 201.689 151.406 204.564 151.77 204.695C151.77 204.695 146.736 203.536 146.457 209.027C146.433 209.596 146.481 210.166 146.599 210.723Z" fill="black"/>
<path d="M151.705 213.046L152.585 213.552L161.506 213.78C162.507 214.388 163.564 214.897 164.664 215.298C164.81 215.341 164.958 215.374 165.109 215.394C165.937 215.462 166.769 215.477 167.599 215.44C168.282 215.44 168.808 215.394 168.808 215.394C168.808 215.394 168.388 204.144 168.069 202.959C167.918 202.393 167.169 202.514 166.43 202.797C165.876 203.024 165.341 203.295 164.831 203.607C164.831 203.607 161.046 203.977 160.444 204.301C159.841 204.624 158.131 204.113 157.068 204.301C156.006 204.488 154.108 203.05 154.108 203.05C148.932 201.34 151.846 204.528 152.216 204.67C152.216 204.67 147.156 203.511 146.898 209.002C146.639 214.493 151.705 213.046 151.705 213.046Z" fill="#3F3D56"/>
<path d="M164.603 208.704C164.699 211.032 166.516 213.921 167.599 215.45C168.282 215.45 168.808 215.404 168.808 215.404C168.808 215.404 168.388 204.154 168.069 202.969C167.918 202.403 167.169 202.524 166.43 202.808C165.534 204.488 164.522 206.821 164.603 208.704Z" fill="#565387"/>
<path opacity="0.1" d="M164.603 208.704C164.699 211.032 166.516 213.921 167.599 215.45C168.282 215.45 168.808 215.404 168.808 215.404C168.808 215.404 168.388 204.154 168.069 202.969C167.918 202.403 167.169 202.524 166.43 202.808C165.534 204.488 164.522 206.821 164.603 208.704Z" fill="black"/>
<path opacity="0.05" d="M163.075 209.012C163.692 211.259 163.682 213.78 164.664 215.308C164.81 215.351 164.958 215.384 165.109 215.404C165.937 215.472 166.769 215.487 167.599 215.45C168.282 215.45 168.808 215.404 168.808 215.404C168.808 215.404 168.388 204.154 168.069 202.969C167.918 202.403 167.169 202.524 166.43 202.808C165.876 203.034 165.341 203.305 164.831 203.617C164.831 203.617 162.291 206.133 163.075 209.012Z" fill="black"/>
<path opacity="0.1" d="M132.299 186.203C132.299 186.203 136.732 187.64 140.486 192.751L132.299 186.203Z" fill="black"/>
<g opacity="0.1">
<path d="M168.307 130.724C168.307 130.76 168.307 130.79 168.282 130.826C168.239 130.958 168.187 131.086 168.125 131.21C168.174 131.044 168.235 130.882 168.307 130.724Z" fill="black"/>
<path d="M143.239 128.482C143.314 128.159 143.43 127.846 143.583 127.551C143.583 127.627 143.532 127.708 143.512 127.789C143.344 128.814 143.415 129.863 143.72 130.856C143.787 131.39 144.052 131.88 144.464 132.227C145.152 132.668 146.219 132.283 146.781 132.875C147.135 133.255 147.156 133.928 147.621 134.161C147.795 134.237 147.987 134.258 148.173 134.221C149.402 134.049 150.111 132.663 151.295 132.278C151.984 132.101 152.712 132.165 153.359 132.46C153.625 132.541 153.863 132.694 154.048 132.901C154.442 133.407 154.164 134.161 154.346 134.778C154.599 135.639 155.626 135.978 156.512 136.089C157.397 136.2 158.399 136.266 158.991 136.939C159.187 137.189 159.328 137.477 159.404 137.785C159.48 138.093 159.489 138.414 159.432 138.726C159.379 138.944 159.379 139.171 159.432 139.389C159.674 140.082 160.874 139.976 161.187 139.429C161.42 139.029 161.349 138.7 161.891 138.589C162.277 138.561 162.665 138.629 163.019 138.786C163.979 139.115 164.991 139.268 166.005 139.237C166.841 139.25 167.66 139 168.348 138.523C168.648 138.287 168.893 137.988 169.066 137.648C168.91 138.268 168.554 138.819 168.054 139.217C167.367 139.693 166.548 139.943 165.711 139.93C164.697 139.961 163.686 139.809 162.726 139.48C162.372 139.322 161.984 139.254 161.597 139.282C161.056 139.394 161.127 139.723 160.899 140.123C160.58 140.669 159.381 140.775 159.138 140.082C159.088 139.864 159.088 139.637 159.138 139.419C159.196 139.107 159.187 138.786 159.111 138.478C159.035 138.17 158.894 137.882 158.698 137.633C158.106 136.959 157.109 136.899 156.218 136.782C155.328 136.666 154.306 136.332 154.053 135.472C153.87 134.854 154.149 134.1 153.754 133.594C153.571 133.388 153.334 133.236 153.071 133.154C152.421 132.861 151.692 132.797 151.001 132.971C149.822 133.356 149.109 134.743 147.879 134.915C147.693 134.951 147.501 134.93 147.328 134.854C146.862 134.621 146.822 133.948 146.488 133.569C145.926 132.976 144.863 133.361 144.175 132.921C143.761 132.575 143.493 132.085 143.426 131.549C143.125 130.556 143.061 129.505 143.239 128.482Z" fill="black"/>
</g>
<path opacity="0.1" d="M169.026 165.488C168.176 166.632 167.209 167.69 166.46 168.894C165.647 170.082 165.252 171.506 165.337 172.943C166.111 172.148 166.47 171.045 166.956 170.048C167.786 168.358 169.021 166.925 170.068 165.377C170.265 165.078 171.541 163.352 170.898 163.282C170.362 163.206 169.314 165.098 169.026 165.488Z" fill="black"/>
<path d="M173.58 273.777C174.192 275.741 174.81 277.71 175.574 279.618C176.95 282.935 178.683 286.093 180.74 289.036C182.067 290.974 183.492 292.842 185.011 294.633C186.914 296.875 189.059 299.133 189.707 301.997C190.096 303.652 189.965 305.378 190.127 307.058C190.289 308.738 190.84 310.54 192.212 311.552C193.188 312.276 194.438 312.494 195.637 312.681C196.498 312.817 197.57 312.863 198.016 312.119C198.171 311.815 198.253 311.479 198.253 311.137L198.461 308.662C198.501 308.126 198.694 307.443 199.23 307.417C199.766 307.392 200.035 308.106 200.49 308.43C201.097 308.855 202.008 308.43 202.342 307.787C202.619 307.091 202.637 306.319 202.393 305.611C202.024 304.202 201.362 302.887 200.448 301.753C199.535 300.619 198.392 299.692 197.095 299.031C196.193 298.668 195.329 298.219 194.514 297.69C193.686 296.97 192.999 296.102 192.49 295.129C187.794 287.396 183.073 279.623 179.758 271.206C179.105 269.702 178.664 268.115 178.448 266.49C178.286 264.835 178.544 263.17 178.65 261.51C178.846 258.528 178.57 255.533 177.83 252.638C177.669 251.878 177.383 251.149 176.985 250.482C175.619 248.412 172.431 248.103 170.407 249.53C169.662 250.104 169.044 250.826 168.593 251.651C168.141 252.476 167.867 253.386 167.786 254.323C167.639 256.003 168.606 257.744 169.097 259.308C170.584 264.136 172.079 268.959 173.58 273.777Z" fill="#A1616A"/>
<path opacity="0.05" d="M173.58 273.777C174.192 275.741 174.81 277.71 175.574 279.618C176.95 282.935 178.683 286.093 180.74 289.036C182.067 290.974 183.492 292.842 185.011 294.633C186.914 296.875 189.059 299.133 189.707 301.997C190.096 303.652 189.965 305.378 190.127 307.058C190.289 308.738 190.84 310.54 192.212 311.552C193.188 312.276 194.438 312.494 195.637 312.681C196.498 312.817 197.57 312.863 198.016 312.119C198.171 311.815 198.253 311.479 198.253 311.137L198.461 308.662C198.501 308.126 198.694 307.443 199.23 307.417C199.766 307.392 200.035 308.106 200.49 308.43C201.097 308.855 202.008 308.43 202.342 307.787C202.619 307.091 202.637 306.319 202.393 305.611C202.024 304.202 201.362 302.887 200.448 301.753C199.535 300.619 198.392 299.692 197.095 299.031C196.193 298.668 195.329 298.219 194.514 297.69C193.686 296.97 192.999 296.102 192.49 295.129C187.794 287.396 183.073 279.623 179.758 271.206C179.105 269.702 178.664 268.115 178.448 266.49C178.286 264.835 178.544 263.17 178.65 261.51C178.846 258.528 178.57 255.533 177.83 252.638C177.669 251.878 177.383 251.149 176.985 250.482C175.619 248.412 172.431 248.103 170.407 249.53C169.662 250.104 169.044 250.826 168.593 251.651C168.141 252.476 167.867 253.386 167.786 254.323C167.639 256.003 168.606 257.744 169.097 259.308C170.584 264.136 172.079 268.959 173.58 273.777Z" fill="black"/>
<path d="M144.079 356.463C144.995 356.782 145.968 356.899 146.933 356.807C147.004 356.018 148.066 355.841 148.856 355.881C149.238 355.869 149.616 355.956 149.954 356.134C150.151 356.261 150.303 356.443 150.495 356.574C150.838 356.762 151.223 356.862 151.614 356.863L155.722 357.207C157.554 357.364 159.462 357.506 161.177 356.853C161.519 356.745 161.823 356.541 162.053 356.266C162.518 355.598 162.053 354.641 161.41 354.155C160.767 353.67 159.938 353.452 159.29 352.956C157.863 351.868 157.666 349.833 156.912 348.204C156.376 347.176 155.715 346.219 154.943 345.354C154.384 344.612 153.733 343.943 153.005 343.365C151.356 342.176 149.463 342.201 147.525 342.029C146.159 341.908 144.873 341.827 143.892 343.041C142.677 344.56 143.163 347.596 143.239 349.368C143.334 351.751 143.615 354.123 144.079 356.463Z" fill="#514E7F"/>
<path opacity="0.05" d="M144.079 356.463C144.995 356.782 145.968 356.899 146.933 356.807C147.004 356.018 148.066 355.841 148.856 355.881C149.238 355.869 149.616 355.956 149.954 356.134C150.151 356.261 150.303 356.443 150.495 356.574C150.838 356.762 151.223 356.862 151.614 356.863L155.722 357.207C157.554 357.364 159.462 357.506 161.177 356.853C161.519 356.745 161.823 356.541 162.053 356.266C162.518 355.598 162.053 354.641 161.41 354.155C160.767 353.67 159.938 353.452 159.29 352.956C157.863 351.868 157.666 349.833 156.912 348.204C156.376 347.176 155.715 346.219 154.943 345.354C154.384 344.612 153.733 343.943 153.005 343.365C151.356 342.176 149.463 342.201 147.525 342.029C146.159 341.908 144.873 341.827 143.892 343.041C142.677 344.56 143.163 347.596 143.239 349.368C143.334 351.751 143.615 354.123 144.079 356.463Z" fill="black"/>
<path d="M145.739 276.525C144.484 276.93 143.937 278.494 144.17 279.795C144.403 281.095 145.182 282.219 145.825 283.373C147.657 286.647 148.446 290.392 149.984 293.809C151.133 296.339 152.686 298.718 153.82 301.279C154.953 303.839 155.657 306.729 154.969 309.447C154.635 310.768 153.987 311.977 153.557 313.278C153.131 314.688 152.853 316.138 152.727 317.605C152.17 322.589 152.07 327.614 152.428 332.616C152.431 333.226 152.559 333.828 152.803 334.387C153.061 334.893 153.506 335.399 153.309 335.906C153.223 336.113 153.036 336.265 152.944 336.467C152.681 337.034 153.208 337.636 153.688 338.041C153.602 338.193 153.487 338.327 153.349 338.434C153.211 338.541 153.053 338.619 152.884 338.664C153.229 338.883 153.493 339.208 153.639 339.59C153.785 339.972 153.804 340.391 153.693 340.784C153.268 340.85 153.243 341.503 153.511 341.847C153.779 342.191 154.204 342.404 154.397 342.794C154.51 343.111 154.498 343.46 154.362 343.768C154.227 344.077 153.978 344.322 153.668 344.454C153.036 344.697 152.346 344.75 151.684 344.605C150.562 344.449 149.454 344.205 148.37 343.877C147.803 343.765 147.296 343.453 146.941 342.998C146.586 342.542 146.407 341.974 146.437 341.397C146.186 339.337 146.11 337.26 146.209 335.187C146.386 325.146 146.209 315.095 145.774 305.059C145.597 301.01 144.383 297.088 142.819 293.363C141.955 291.46 140.994 289.602 139.94 287.796C137.683 283.666 135.689 279.091 136.205 274.41C136.261 273.904 136.443 273.302 136.944 273.221C137.14 273.2 137.338 273.233 137.516 273.317C138.555 273.802 139.561 274.357 140.527 274.977C142.113 275.907 143.902 276.439 145.739 276.525Z" fill="#464353"/>
<path opacity="0.05" d="M145.739 276.525C144.484 276.93 143.937 278.494 144.17 279.795C144.403 281.095 145.182 282.219 145.825 283.373C147.657 286.647 148.446 290.392 149.984 293.809C151.133 296.339 152.686 298.718 153.82 301.279C154.953 303.839 155.657 306.729 154.969 309.447C154.635 310.768 153.987 311.977 153.557 313.278C153.131 314.688 152.853 316.138 152.727 317.605C152.17 322.589 152.07 327.614 152.428 332.616C152.431 333.226 152.559 333.828 152.803 334.387C153.061 334.893 153.506 335.399 153.309 335.906C153.223 336.113 153.036 336.265 152.944 336.467C152.681 337.034 153.208 337.636 153.688 338.041C153.602 338.193 153.487 338.327 153.349 338.434C153.211 338.541 153.053 338.619 152.884 338.664C153.229 338.883 153.493 339.208 153.639 339.59C153.785 339.972 153.804 340.391 153.693 340.784C153.268 340.85 153.243 341.503 153.511 341.847C153.779 342.191 154.204 342.404 154.397 342.794C154.51 343.111 154.498 343.46 154.362 343.768C154.227 344.077 153.978 344.322 153.668 344.454C153.036 344.697 152.346 344.75 151.684 344.605C150.562 344.449 149.454 344.205 148.37 343.877C147.803 343.765 147.296 343.453 146.941 342.998C146.586 342.542 146.407 341.974 146.437 341.397C146.186 339.337 146.11 337.26 146.209 335.187C146.386 325.146 146.209 315.095 145.774 305.059C145.597 301.01 144.383 297.088 142.819 293.363C141.955 291.46 140.994 289.602 139.94 287.796C137.683 283.666 135.689 279.091 136.205 274.41C136.261 273.904 136.443 273.302 136.944 273.221C137.14 273.2 137.338 273.233 137.516 273.317C138.555 273.802 139.561 274.357 140.527 274.977C142.113 275.907 143.902 276.439 145.739 276.525Z" fill="black"/>
<path d="M128.772 264.318C128.118 263.898 127.363 263.661 126.586 263.63C125.685 263.676 124.916 264.268 124.213 264.835C123.379 265.474 122.588 266.167 121.844 266.91C120.304 268.551 119.231 270.575 118.737 272.772C118.242 274.968 118.344 277.256 119.031 279.4C119.775 281.632 121.136 283.601 122.482 285.529L125.215 289.456C129.384 295.443 133.554 301.43 137.921 307.276C137.922 307.419 137.968 307.559 138.054 307.675C138.139 307.79 138.259 307.876 138.396 307.918C138.553 307.959 138.751 307.954 138.847 308.085C138.891 308.167 138.911 308.261 138.902 308.354C138.893 308.786 138.811 309.214 138.66 309.619C138.589 309.753 138.571 309.908 138.609 310.054C138.751 310.383 139.348 310.196 139.54 310.505C139.666 310.707 139.51 310.97 139.343 311.142C139.176 311.314 138.968 311.507 138.999 311.745C139.029 311.982 139.444 312.251 139.429 312.544C139.429 312.716 139.277 312.848 139.171 312.984C139.022 313.202 138.954 313.465 138.979 313.728C139.004 313.99 139.12 314.236 139.307 314.422C139.596 317.276 138.042 319.989 137.733 322.833C137.227 327.327 139.277 331.715 139.525 336.224C139.51 336.732 139.607 337.236 139.808 337.702C140.228 338.482 141.326 338.952 141.271 339.838C141.191 340.202 141.088 340.56 140.962 340.911C140.876 341.417 141.119 341.923 141.129 342.429C141.139 342.935 140.689 343.558 140.213 343.355C140.571 344.55 140.889 345.754 141.169 346.969L150.733 347.758C150.836 346.899 150.807 346.028 150.647 345.177C150.45 344.251 150.035 343.391 149.817 342.475C149.676 342.024 149.636 341.547 149.701 341.079C149.765 340.611 149.933 340.163 150.192 339.767C149.942 339.77 149.7 339.685 149.508 339.526C149.315 339.368 149.184 339.147 149.139 338.902C149.059 338.408 149.068 337.904 149.164 337.414C149.417 334.919 148.37 332.459 148.4 329.954C148.431 327.98 149.124 326.082 149.473 324.144C150.222 319.994 149.443 315.495 151.29 311.704C152.408 309.422 153.956 306.891 152.702 304.679C152.084 303.586 150.991 302.837 150.278 301.805C149.696 300.829 149.26 299.774 148.982 298.672C147.51 294.117 145.126 289.886 143.037 285.554C142.457 284.468 142.026 283.309 141.756 282.108C141.609 281.053 141.555 279.988 141.594 278.924C141.594 277.014 141.478 275.106 141.245 273.21C141.198 272.38 140.961 271.571 140.552 270.847C140.139 270.299 139.624 269.837 139.034 269.486C135.897 267.335 132.162 266.105 128.772 264.318Z" fill="#464353"/>
<path d="M140.233 359.97C141.151 360.284 142.126 360.4 143.092 360.309C143.163 359.52 144.221 359.343 145.01 359.383C145.392 359.371 145.77 359.458 146.108 359.636C146.305 359.763 146.457 359.95 146.655 360.077C146.997 360.267 147.382 360.366 147.773 360.365L151.877 360.709C153.714 360.866 155.616 361.013 157.337 360.355C157.678 360.248 157.98 360.044 158.207 359.768C158.673 359.1 158.207 358.148 157.564 357.663C156.922 357.177 156.092 356.954 155.449 356.458C154.017 355.37 153.825 353.341 153.066 351.711C152.535 350.68 151.875 349.721 151.103 348.856C150.542 348.115 149.889 347.449 149.159 346.873C147.515 345.678 145.617 345.704 143.684 345.531C142.313 345.41 141.028 345.334 140.051 346.544C138.837 348.062 139.322 351.098 139.393 352.875C139.488 355.258 139.769 357.631 140.233 359.97Z" fill="#514E7F"/>
<path d="M182.622 247.754C187.854 247.754 192.095 243.512 192.095 238.28C192.095 233.047 187.854 228.806 182.622 228.806C177.391 228.806 173.15 233.047 173.15 238.28C173.15 243.512 177.391 247.754 182.622 247.754Z" fill="#A1616A"/>
<path d="M173.686 241.094C172.33 242.263 170.382 242.349 168.601 242.531C164.792 242.922 161.085 243.996 157.655 245.699C157.181 245.904 156.751 246.199 156.39 246.57C156.083 246.971 155.864 247.433 155.748 247.926C155.422 248.992 155.3 250.11 155.388 251.221C155.513 252.298 155.822 253.346 156.304 254.318C157.619 257.04 159.648 259.354 162.174 261.014C162.619 261.345 163.125 261.588 163.662 261.727C164.907 261.985 166.111 261.267 167.341 260.943C168.459 260.651 169.638 260.688 170.736 261.049C171.748 261.393 172.856 262.021 173.858 261.601C174.499 261.242 174.998 260.674 175.27 259.991C176.238 258.162 177.101 256.28 177.856 254.353C178.127 253.601 178.439 252.865 178.792 252.147C179.89 250.057 181.788 248.442 182.734 246.271C182.83 246.105 182.888 245.92 182.904 245.73C182.919 245.539 182.892 245.347 182.825 245.168C182.649 244.926 182.407 244.741 182.127 244.636C180.727 243.835 179.452 242.834 178.342 241.666C177.719 241.068 176.576 239.454 175.68 239.312C174.673 239.14 174.369 240.507 173.686 241.094Z" fill="#A1616A"/>
<path d="M173.909 260.346C172.811 260.852 171.515 260.634 170.326 260.386C167.26 259.743 164.158 259.095 161.319 257.769C160.432 257.43 159.664 256.839 159.108 256.069C158.762 255.41 158.553 254.689 158.49 253.948L157.984 250.406C157.802 249.176 158.116 248.037 158.146 246.792C158.166 246.654 158.157 246.514 158.122 246.379C158.086 246.244 158.024 246.118 157.939 246.008C157.766 245.862 157.542 245.791 157.316 245.81C155.895 245.836 155.034 247.329 154.037 248.341C153.461 248.925 152.773 249.387 152.013 249.697C151.103 250.072 149.989 250.335 149.61 251.246C149.458 251.625 149.478 252.056 149.316 252.435C148.679 253.954 145.961 253.447 145.268 254.966C145.071 255.391 145.086 255.922 144.762 256.256C144.438 256.59 143.831 256.585 143.33 256.666C141.352 256.99 140.395 259.273 138.705 260.351C137.283 261.262 135.451 261.241 133.918 261.95C133.068 262.345 132.314 262.962 131.413 263.22C130.513 263.478 129.495 263.342 128.529 263.367C128.426 263.357 128.322 263.369 128.224 263.401C128.125 263.433 128.035 263.485 127.957 263.554C127.897 263.646 127.857 263.749 127.841 263.857C127.824 263.966 127.831 264.076 127.861 264.182C128.33 267.174 129.57 269.993 131.459 272.361C133.348 274.728 135.821 276.563 138.634 277.684C138.961 277.788 139.271 277.938 139.555 278.13C140.415 278.772 140.567 280.154 141.544 280.61C141.896 280.734 142.276 280.758 142.641 280.679C143.007 280.6 143.343 280.422 143.613 280.164C144.152 279.645 144.659 279.094 145.131 278.514C146.023 277.583 147.194 276.966 148.466 276.758C149.64 276.571 150.951 276.708 151.902 275.984C152.291 275.627 152.653 275.241 152.985 274.83C153.69 274.172 154.526 273.672 155.439 273.362C157.933 272.377 160.569 271.797 163.247 271.647C165.742 271.51 168.307 271.738 170.665 270.928C171.278 270.738 171.842 270.419 172.32 269.992C172.827 269.443 173.204 268.788 173.423 268.074C174.274 265.587 174.442 262.919 173.909 260.346Z" fill="#008896"/>
<path d="M161.699 246.382C162.397 246.317 163.1 246.382 163.804 246.382C164.628 246.382 165.443 246.18 166.268 246.175C167.574 246.196 168.839 246.634 169.879 247.426C170.918 248.217 171.678 249.319 172.047 250.573C172.116 250.773 172.128 250.989 172.082 251.195C172.055 251.297 171.992 251.386 171.905 251.446C171.817 251.505 171.711 251.531 171.606 251.519C171.333 250.771 170.974 250.056 170.539 249.389C169.754 248.318 168.637 247.538 167.361 247.172C166.089 246.811 164.749 246.763 163.454 247.03C162.913 247.131 162.387 247.273 161.86 247.42L159.33 248.118C158.865 248.245 158.394 248.371 157.944 248.538C157.595 248.67 156.998 249.151 156.654 249.171C156.188 249.171 156.562 248.766 156.77 248.493C157.183 247.929 157.761 247.508 158.425 247.288C159.476 246.858 160.575 246.553 161.699 246.382Z" fill="#008896"/>
<path d="M168.085 274.84C168.697 276.804 169.309 278.772 170.078 280.68C171.453 283.998 173.185 287.157 175.245 290.099C176.571 292.037 177.997 293.905 179.516 295.696C181.413 297.938 183.533 300.195 184.211 303.055C184.601 304.715 184.469 306.441 184.631 308.116C184.793 309.791 185.345 311.598 186.711 312.61C187.693 313.329 188.943 313.546 190.142 313.739C190.997 313.875 192.07 313.921 192.52 313.177C192.673 312.872 192.754 312.536 192.758 312.195L192.96 309.72C193.006 309.184 193.198 308.5 193.73 308.475C194.261 308.45 194.539 309.163 194.995 309.487C195.602 309.912 196.513 309.487 196.847 308.845C197.122 308.148 197.14 307.377 196.897 306.668C196.527 305.261 195.864 303.947 194.951 302.813C194.038 301.679 192.896 300.751 191.599 300.089C190.697 299.725 189.831 299.276 189.014 298.748C188.184 298.027 187.497 297.157 186.989 296.182C182.289 288.454 177.567 280.68 174.258 272.259C173.605 270.756 173.163 269.171 172.942 267.547C172.785 265.892 173.038 264.227 173.15 262.567C173.346 259.585 173.069 256.591 172.33 253.695C172.169 252.934 171.881 252.206 171.48 251.539C170.119 249.464 166.926 249.161 164.902 250.588C164.156 251.161 163.537 251.883 163.085 252.708C162.633 253.533 162.357 254.443 162.275 255.381C162.129 257.061 163.1 258.802 163.586 260.366C165.08 265.197 166.58 270.022 168.085 274.84Z" fill="#A1616A"/>
<path d="M196.401 231.579C196.477 230.79 195.769 230.061 194.964 229.555C194.117 229.12 193.303 228.623 192.53 228.067C191.812 227.444 191.417 226.634 190.699 226.012C189.882 225.39 188.955 224.928 187.966 224.651C185.863 223.913 183.656 223.519 181.428 223.482C179.176 223.482 176.874 223.988 175.179 225.136C174.761 225.399 174.399 225.744 174.116 226.149C173.849 226.634 173.677 227.167 173.61 227.718C173.206 229.416 172.66 231.076 171.976 232.682C171.272 234.469 170.524 236.321 168.869 237.703C167.098 239.176 164.391 240.026 163.222 241.807C163.092 241.966 163.002 242.152 162.957 242.351C162.912 242.551 162.914 242.758 162.964 242.956C163.131 243.406 163.667 243.715 164.163 243.999C167.037 245.648 169.517 247.789 170.792 250.345C172.067 252.901 172.031 255.912 170.215 258.265C169.547 259.136 168.626 260.168 169.279 261.044C170.291 262.375 173.676 261.611 174.465 263.018C174.713 263.468 174.567 263.979 174.567 264.47C174.567 265.948 175.989 267.259 177.714 267.942C179.44 268.625 181.438 268.787 183.381 268.873C183.897 267.714 183.948 266.4 183.523 265.204C183.394 264.946 183.343 264.656 183.376 264.369C183.521 264.05 183.746 263.775 184.029 263.569C186.104 261.606 185.664 258.721 184.419 256.388C183.174 254.055 181.231 251.924 180.507 249.469C180.148 248.25 180.148 246.878 181.115 245.866C181.669 245.379 182.267 244.944 182.901 244.565C184.033 243.797 184.904 242.703 185.401 241.428C185.982 239.813 185.907 237.885 187.597 236.797C189.221 235.785 191.503 236.078 193.299 235.385C194.681 234.838 196.29 232.738 196.401 231.579Z" fill="#464353"/>
<path d="M294.519 310.879C286.802 307.686 284.535 305.378 284.535 300.757C284.535 297.215 286.093 293.125 292.925 293.125C296.701 293.07 300.41 294.126 303.592 296.162L305.813 290.286C303.237 288.768 299.604 287.356 294.281 287.179V278.575H289.792V287.533C281.63 288.864 276.904 294.451 276.904 301.815C276.904 309.533 281.458 313.617 290.526 317.165C297.094 319.842 300.53 322.858 300.53 327.737C300.53 332.798 296.274 336.432 289.975 336.432C285.01 336.432 279.384 334.747 276.191 332.616L274.06 338.557C277.167 340.779 282.491 342.373 287.632 342.465V351.422H295.267V342.196C304.376 340.678 309.279 334.099 309.279 327.115C309.279 319.22 303.657 314.604 294.519 310.879Z" fill="url(#paint1_linear_101_227)"/>
<path d="M287.652 349.398V340.44C282.511 340.349 277.187 338.755 274.08 336.533L276.211 330.592C279.404 332.722 285.031 334.408 289.995 334.408C296.295 334.408 300.53 330.774 300.53 325.713C300.53 320.834 297.074 317.818 290.506 315.156C281.458 311.613 276.884 307.524 276.884 299.806C276.884 292.442 281.61 286.855 289.772 285.524V276.566H294.261V285.17C299.584 285.347 303.217 286.764 305.793 288.277L303.571 294.127C300.39 292.091 296.681 291.035 292.904 291.091C286.073 291.091 284.515 295.175 284.515 298.723C284.515 303.333 286.782 305.641 294.498 308.845C303.637 312.57 309.259 317.185 309.259 325.08C309.259 332.09 304.381 338.654 295.247 340.162V349.398H287.652Z" fill="#008896"/>
</g>
<defs>
<linearGradient id="paint0_linear_101_227" x1="154.746" y1="215.121" x2="154.746" y2="118.507" gradientUnits="userSpaceOnUse">
<stop stop-color="#808080" stop-opacity="0.25"/>
<stop offset="0.54" stop-color="#808080" stop-opacity="0.12"/>
<stop offset="1" stop-color="#808080" stop-opacity="0.1"/>
</linearGradient>
<linearGradient id="paint1_linear_101_227" x1="274.08" y1="315.004" x2="309.279" y2="315.004" gradientUnits="userSpaceOnUse">
<stop stop-color="#808080" stop-opacity="0.25"/>
<stop offset="0.54" stop-color="#808080" stop-opacity="0.12"/>
<stop offset="1" stop-color="#808080" stop-opacity="0.1"/>
</linearGradient>
<clipPath id="clip0_101_227">
<rect width="596" height="367" fill="white"/>
</clipPath>
</defs>
</svg>
